<ttFont>
          <CharString index="0">
            rmoveto
            -25 callgsubr
            442 -27 vlineto
            -147 33 callsubr
            -347 vlineto
            -15 -40 -60 -16 -36 hhcurveto
            -69 -12 24 44 hvcurveto
            -69 callsubr
            return
          </CharString>
          <CharString index="1">
            -208 -81 -144 -174 -174 83 -143 206 206 81 143 174 174 -79 144 -208 hvcurveto
            197 -318 rmoveto
            -63 callgsubr
            -166 -36 158 111 -82 callgsubr
            vhcurveto
            return
          </CharString>
          <CharString index="2">
            86 -19 rlineto
            -322 vlineto
            -115 -43 -81 -123 -129 -21 103 120 vhcurveto
            294 -33 callsubr
            -264 -33 vlineto
            91 -20 rlineto
            -294 vlineto
            -145 30 -129 199 return
          </CharString>
          <CharString index="3">
            rmoveto
            -50 callgsubr
            -32 -28 -27 -33 -33 28 -24 32 31 29 24 33 vhcurveto
            return
          </CharString>
          <CharString index="4">
            -105 callgsubr
            endchar
          </CharString>
          <CharString index="5">
            229 hlineto
            36 -102 -60 -17 rlineto
            -33 217 33 vlineto
            -72 19 -197 572 -58 -13 -187 -559 -72 -19 rlineto
            -33 203 33 vlineto
            return
          </CharString>
          <CharString index="6">
            rmoveto
            -87 42 -45 60 -23 vhcurveto
            111 -43 rlineto
            66 -26 22 -38 -53 vvcurveto
            -61 -51 -42 -83 -44 -41 8 6 -23 vhcurveto
            -19 86 rlineto
            -37 hlineto
            -14 -118 rlineto
            -21 52 68 -10 52 hhcurveto
            147 74 67 107 86 -35 45 -69 26 hvcurveto
            -108 44 rlineto
            -60 24 -32 28 58 vvcurveto
            67 49 36 78 25 43 -4 -6 19 vhcurveto
            22 -97 rlineto
            37 hlineto
            10 130 rlineto
            17 -52 -56 10 -54 hhcurveto
            -128 -71 -64 -107 hvcurveto
            return
          </CharString>
          <CharString index="7">
            -35 -73 40 -34 hhcurveto
            -33 -20 -42 -52 -21 hvcurveto
            30 -12 rlineto
            0 23 36 22 vhcurveto
            return
          </CharString>
          <CharString index="8">
            rmoveto
            24 -97 rlineto
            38 hlineto
            14 127 rlineto
            21 -45 -79 9 -54 hhcurveto
            -225 -80 -144 -174 -173 76 -147 222 73 62 15 27 45 hvcurveto
            203 vlineto
            71 20 rlineto
            34 -243 -34 vlineto
            89 -20 rlineto
            -178 vlineto
            -14 -28 -30 -5 -35 hhcurveto
            -174 -38 159 113 113 36 156 179 40 37 -5 -6 25 hvcurveto
            return
          </CharString>
          <CharString index="9">
            rmoveto
            40 -27 vlineto
            -145 -37 callgsubr
            -25 rlineto
            -28 254 28 vlineto
            -82 25 rlineto
            371 vlineto
            10 36 51 6 42 50 callsubr
            -82 -25 rlineto
            -28 255 28 vlineto
            -90 25 rlineto
            338 vlineto
            82 -62 27 -71 -66 -74 -23 -17 -39 vhcurveto
            return
          </CharString>
          <CharString index="10">
            rmoveto
            15 -4 24 -9 18 vhcurveto
            -68 -14 -6 -13 rlineto
            3 -13 2 -16 -12 vvcurveto
            -44 -27 -9 -39 vhcurveto
            return
          </CharString>
          <CharString index="11">
            rmoveto
            65 callsubr
            hvcurveto
            21 -73 rlineto
            30 hlineto
            16 107 rlineto
            20 -44 -46 12 -44 hhcurveto
            -116 -57 -53 -88 -67 31 -38 72 -27 hvcurveto
            63 -22 rlineto
            65 -23 19 -22 -33 vvcurveto
            -62 -40 -27 -65 -38 -28 6 6 -21 vhcurveto
            -21 82 rlineto
            -31 hlineto
            -14 -116 rlineto
            -17 44 60 -9 44 hhcurveto
            122 63 59 93 63 -22 37 -89 31 hvcurveto
            -72 26 rlineto
            -52 19 -20 16 44 vvcurveto
            45 36 26 64 vhcurveto
            return
          </CharString>
          <CharString index="12">
            -97 callsubr
            -176 -33 hlineto
            -71 callgsubr
            323 vlineto
            62 15 rlineto
            66 13 53 35 53 vvcurveto
            return
          </CharString>
          <CharString index="13">
            rmoveto
            -50 callsubr
            -506 vlineto
            -80 -20 rlineto
            -33 224 33 vlineto
            -86 20 rlineto
            435 vlineto
            349 -498 62 10 rlineto
            559 6 callsubr
            vlineto
            return
          </CharString>
          <CharString index="14">
            146 33 hlineto
            -78 21 -97 187 10 30 -70 21 rlinecurve
            115 27 30 77 61 vvcurveto
            80 -61 74 -153 vhcurveto
            -243 -33 hlineto
            93 -31 callsubr
            -93 -20 rlineto
            -33 269 33 vlineto
            -93 20 rlineto
            226 38 vlineto
            68 -14 -2 -277 133 hvcurveto
            -164 319 rmoveto
            -61 240 hlineto
            6 21 23 4 19 hhcurveto
            86 41 -47 -71 -78 -43 -54 -86 hvcurveto
            return
          </CharString>
          <CharString index="15">
            196 hlineto
            21 -80 rlineto
            39 132 -434 -33 hlineto
            95 -31 callsubr
            -95 -20 rlineto
            -33 return
          </CharString>
          <CharString index="16">
            rmoveto
            -277 -404 16 -34 rlineto
            354 hlineto
            9 130 rlineto
            -35 hlineto
            -31 -79 rlineto
            -209 hlineto
            282 407 -17 33 rlineto
            -357 hlineto
            13 -129 rlineto
            37 hlineto
            16 76 rlineto
            199 hlineto
            return
          </CharString>
          <CharString index="17">
            rmoveto
            22 18 -100 139 rlineto
            -60 hlineto
            -98 -139 21 -18 108 90 107 -90 rlineto
            return
          </CharString>
          <CharString index="18">
            459 46 callgsubr
            -26 -91 rlineto
            -216 221 142 hlineto
            24 -69 rlineto
            36 181 -36 hlineto
            return
          </CharString>
          <CharString index="19">
            rmoveto
            32 -27 -93 callgsubr
            27 25 30 vhcurveto
            return
          </CharString>
          <CharString index="20">
            -79 callgsubr
            89 -10 rlineto
            return
          </CharString>
          <CharString index="21">
            rmoveto
            21 -79 rlineto
            33 hlineto
            15 144 rlineto
            1 -9 -7 0 -10 hhcurveto
            -50 -59 -19 -29 -46 hvcurveto
            46 -35 vlineto
            -134 -4 callsubr
            89 -12 rlineto
            -374 vlineto
            -89 -26 rlineto
            -28 285 30 vlineto
            -113 23 rlineto
            364 vlineto
            11 32 37 8 40 hhcurveto
            return
          </CharString>
          <CharString index="22">
            rmoveto
            62 45 16 28 55 hvcurveto
            -6 32 rlineto
            -14 -41 -59 -8 -51 hhcurveto
            -104 -25 83 119 122 25 81 100 29 31 -5 -8 25 hvcurveto
            24 -90 rlineto
            31 hlineto
            19 123 rlineto
            21 -54 -44 10 -62 hhcurveto
            -156 -60 -114 -143 -139 61 -114 155 hvcurveto
            endchar
          </CharString>
          <CharString index="23">
            -147 -4 callsubr
            return
          </CharString>
          <CharString index="24">
            71 -20 -130 -261 -125 261 79 callsubr
            -225 -33 vlineto
            68 -20 167 -334 rlineto
            -171 vlineto
            -5 callsubr
            -107 20 rlineto
            171 vlineto
            168 334 72 -15 callsubr
            -206 return
          </CharString>
          <CharString index="25">
            33 75 -40 34 hhcurveto
            32 20 42 51 21 hvcurveto
            return
          </CharString>
          <CharString index="26">
            -33 vlineto
            -75 callgsubr
            return
          </CharString>
          <CharString index="27">
            117 29 90 109 114 29 -90 -117 return
          </CharString>
          <CharString index="28">
            rmoveto
            -205 -29 hlineto
            58 -21 167 -421 rlineto
            -100 -44 -30 -32 -72 hhcurveto
            -42 hlineto
            -6 -32 rlineto
            -16 28 -6 callsubr
            144 407 64 21 rlineto
            29 -194 -29 vlineto
            74 -21 -105 84 callgsubr
          </CharString>
          <CharString index="29">
            rmoveto
            63 21 rlineto
            29 -204 -29 vlineto
            86 -21 -103 -329 -116 341 -53 -7 -109 -334 -110 329 62 21 rlineto
            29 -203 -29 vlineto
            56 -21 156 -454 49 9 112 328 117 -337 49 9 148 445 rlineto
            endchar
          </CharString>
          <CharString index="30">
            3 -9 rlineto
            56 21 -22 -26 -37 -32 -31 -47 -12 -10 2 4 -13 hvcurveto
            -8 -25 rlineto
            -6 17 18 -2 17 hhcurveto
            72 63 46 57 37 -34 33 -73 hvcurveto
            return
          </CharString>
          <CharString index="31">
            715 rmoveto
            -22 -18 100 -139 rlineto
            60 hlineto
            98 139 -21 18 -107 -90 -108 90 rlineto
            return
          </CharString>
          <CharString index="32">
            -97 callsubr
            -23 hlineto
            28 -42 -55 16 -70 hhcurveto
            -208 -81 -144 -174 -174 83 -143 206 hvcurveto
            hintmask 11110000
            -8 callgsubr
            hintmask 11101000
            69 12 57 36 55 vvcurveto
            hintmask 11110000
            -335 -607 -72 callsubr
            endchar
          </CharString>
          <CharString index="33">
            -69 callsubr
            -25 callgsubr
            return
          </CharString>
          <CharString index="34">
            rmoveto
            -97 callgsubr
            -46 callsubr
            -35 callgsubr
            -83 30 rmoveto
            -17 -32 -48 -20 -38 hhcurveto
            -42 -31 19 57 40 20 39 67 11 hvcurveto
            104 17 rlineto
            -146 vlineto
            endchar
          </CharString>
          <CharString index="35">
            rmoveto
            -166 -36 158 111 -82 callgsubr
            -63 callgsubr
            hvcurveto
            return
          </CharString>
          <CharString index="36">
            544 rmoveto
            19 11 -90 159 rlineto
            -75 -17 hlineto
            146 -153 rlineto
            161 hmoveto
            19 11 -90 159 rlineto
            -75 -17 hlineto
            146 -153 rlineto
            return
          </CharString>
          <CharString index="37">
            -31 12 rlineto
            0 -20 -35 -23 vhcurveto
            return
          </CharString>
          <CharString index="38">
            380 -26 -87 callsubr
            -321 vlineto
            -60 27 -59 87 70 66 33 23 56 vhcurveto
            -32 5 33 -18 26 hhcurveto
            26 39 4 12 41 hvcurveto
            return
          </CharString>
          <CharString index="39">
            35 -13 59 -46 30 276 26 248 43 hstemhm
            50 84 -18 73 150 60 46 45 hintmask 10111010
            399 70 rmoveto
            hintmask 01110111
            66 -70 rlineto
            130 30 hlineto
            -71 16 -79 82 21 46 17 55 7 58 rlinecurve
            75 19 rlineto
            26 -175 -30 vlineto
            55 -15 -4 -51 -10 -40 -16 -39 rlinecurve
            -45 53 -43 53 -56 72 rrcurveto
            64 39 64 47 86 vvcurveto
            77 -56 39 -77 -59 -91 -21 -111 -43 28 -63 35 -49 vhcurveto
            hintmask 10111010
            -66 -36 -63 -54 -103 vvcurveto
            -85 54 -71 117 79 49 27 56 50 vhcurveto
            hintmask 10110110
            -210 429 rmoveto
            51 25 30 50 70 5 -50 -37 -55 -43 -39 -51 -29 vhcurveto
            -32 46 -24 42 41 vvcurveto
            61 -453 rmoveto
            hintmask 10111010
            -74 -42 31 93 64 17 26 56 39 hvcurveto
            56 -76 63 -69 46 -54 rrcurveto
            hintmask 10110110
            -34 -31 -35 -20 -56 hhcurveto
            endchar
          </CharString>
          <CharString index="40">
            -153 130 -77 -28 rlineto
            -18 vlineto
            return
          </CharString>
          <CharString index="41">
            -111 -409 -101 409 79 callsubr
            -219 -33 vlineto
            72 -20 151 -567 55 11 121 416 135 -427 56 11 137 556 73 -15 callsubr
            return
          </CharString>
          <CharString index="42">
            637 -104 callsubr
            return
          </CharString>
          <CharString index="43">
            rmoveto
            -70 callsubr
            return
          </CharString>
          <CharString index="44">
            4 -40 rlineto
            38 hlineto
            6 25 rlineto
            return
          </CharString>
          <CharString index="45">
            32 vlineto
            -89 21 rlineto
            338 vlineto
            82 -63 27 -71 -65 -72 -23 -17 -40 vhcurveto
            267 -25 vlineto
            -148 -38 rlineto
            -23 28 callgsubr
            -603 vlineto
            -90 -21 rlineto
            -32 257 32 vlineto
            -83 21 rlineto
            371 vlineto
            10 34 50 6 43 50 callsubr
            -83 -21 rlineto
            -32 256 vlineto
            return
          </CharString>
          <CharString index="46">
            rmoveto
            -90 20 rlineto
            674 -12 callsubr
            1 callgsubr
            -603 71 callsubr
            return
          </CharString>
          <CharString index="47">
            rmoveto
            -89 -20 rlineto
            -33 262 33 vlineto
            -90 20 rlineto
            506 vlineto
            89 19 rlineto
            33 -261 -33 vlineto
            89 -19 rlineto
            -230 -302 230 vlineto
            89 19 rlineto
            33 -261 -33 vlineto
            89 -19 rlineto
            -506 108 callsubr
            261 33 vlineto
            -89 20 rlineto
            227 302 -227 vlineto
            return
          </CharString>
          <CharString index="48">
            323 vlineto
            80 19 rlineto
            33 -223 return
          </CharString>
          <CharString index="49">
            rmoveto
            -262 59 callgsubr
            hintmask 10111000
            -505 71 callgsubr
            hvcurveto
            hintmask 01111000
            15 callgsubr
            vhcurveto
            793 -464 -83 callgsubr
            -803 417 73 callgsubr
            hvcurveto
            hintmask 10111000
            -112 -28 -165 -152 -39 -53 8 9 -25 vhcurveto
            500 vlineto
            hintmask 01111000
            3 17 29 3 33 hhcurveto
            endchar
          </CharString>
          <CharString index="50">
            rmoveto
            -262 59 callgsubr
            hintmask 10111100
            -505 71 callgsubr
            hvcurveto
            hintmask 01111100
            15 callgsubr
            vhcurveto
            -10 -47 73 callgsubr
            hvcurveto
            hintmask 10111100
            -112 -28 -165 -152 -39 -53 8 9 -25 vhcurveto
            500 vlineto
            hintmask 01111100
            3 17 29 3 33 hhcurveto
            662 -126 -91 callsubr
            endchar
          </CharString>
          <CharString index="51">
            rmoveto
            33 102 rlineto
            -61 hlineto
            -28 -87 rlineto
            3 -20 -22 2 -23 hhcurveto
            -208 -81 -144 -174 -131 47 -113 111 -48 hvcurveto
            -36 -112 rlineto
            61 hlineto
            30 94 rlineto
            -4 24 25 -3 27 hhcurveto
            206 81 143 174 135 -48 117 -118 46 hvcurveto
            -320 -298 rmoveto
            113 32 157 161 20 18 -2 -4 17 vhcurveto
            -161 -497 rlineto
            -69 53 -18 102 78 vvcurveto
            202 -269 rmoveto
            -23 -21 3 6 -19 hvcurveto
            162 500 rlineto
            76 -51 19 -106 -83 vvcurveto
            -63 callgsubr
            vhcurveto
            endchar
          </CharString>
          <CharString index="52">
            -52 -105 callgsubr
            return
          </CharString>
          <CharString index="53">
            -164 269 50 289 44 hstem
            40 72 134 71 vstem
            184 608 rmoveto
            48 14 -22 -39 hvcurveto
            -61 vlineto
            -110 -19 rlineto
            -84 -15 -12 -53 -37 vvcurveto
            -46 29 -47 50 50 40 20 27 39 vhcurveto
            -27 4 25 -15 25 hhcurveto
            22 28 4 9 30 hvcurveto
            23 vlineto
            -65 14 rlineto
            245 vlineto
            64 -47 19 -69 -52 -50 -11 -17 -42 vhcurveto
            12 -91 rlineto
            27 hlineto
            17 66 rlineto
            7 23 26 2 22 hhcurveto
            -10 -168 rmoveto
            72 12 rlineto
            -106 vlineto
            -13 -23 -33 -14 -27 hhcurveto
            -29 -22 14 41 29 14 29 48 8 hvcurveto
            endchar
          </CharString>
          <CharString index="54">
            rmoveto
            -52 217 52 -217 vlineto
            return
          </CharString>
          <CharString index="55">
            -21 0 -34 callgsubr
            return
          </CharString>
          <CharString index="56">
            -119 -26 -89 -111 return
          </CharString>
          <CharString index="57">
            -33 vlineto
            85 -19 rlineto
            -429 vlineto
            -345 481 rlineto
            -148 -33 hlineto
            80 -19 rlineto
            return
          </CharString>
          <CharString index="58">
            223 611 rlineto
            -58 hlineto
            -224 -611 rlineto
            59 hlineto
            return
          </CharString>
          <CharString index="59">
            rmoveto
            18 vlineto
            -76 28 -154 -130 16 -19 214 103 rlineto
            return
          </CharString>
          <CharString index="60">
            -22 callsubr
            hintmask 11110110
            -23 callgsubr
            hintmask 11111001
            40 callsubr
            hintmask 11110110
            -37 callsubr
            hintmask 11111001
            -61 callgsubr
          </CharString>
          <CharString index="61">
            9 31 38 5 30 hhcurveto
            return
          </CharString>
          <CharString index="62">
            74 0 41 236 46 241 49 callgsubr
            -235 -87 -46 87 -224 44 callgsubr
            28 -570 rmoveto
            -39 -53 8 9 -25 hvcurveto
            219 112 46 -112 235 vlineto
            3 17 29 3 33 hhcurveto
            81 callsubr
            hvcurveto
            endchar
          </CharString>
          <CharString index="63">
            -42 callsubr
            hstem
            41 90 396 90 vstem
            return
          </CharString>
          <CharString index="64">
            rmoveto
            -85 -40 81 117 127 48 80 91 46 36 -12 -18 32 hvcurveto
            -336 vlineto
            -14 -25 -50 -25 -53 hhcurveto
            return
          </CharString>
          <CharString index="65">
            93 -9 48 539 48 return
          </CharString>
          <CharString index="66">
            456 -101 callsubr
            return
          </CharString>
          <CharString index="67">
            221 449 -96 callsubr
            return
          </CharString>
          <CharString index="68">
            -34 callsubr
            -2 callsubr
            -203 586 -217 217 hintmask 11010000
            return
          </CharString>
          <CharString index="69">
            725 -104 callsubr
            return
          </CharString>
          <CharString index="70">
            33 callgsubr
            -38 -35 -21 -25 -42 -22 vhcurveto
            -46 24 -30 27 35 vvcurveto
            return
          </CharString>
          <CharString index="71">
            0 -10 callsubr
            return
          </CharString>
          <CharString index="72">
            441 hmoveto
            -93 callsubr
            return
          </CharString>
          <CharString index="73">
            29 0 33 119 46 return
          </CharString>
          <CharString index="74">
            vlineto
            70 callgsubr
            return
          </CharString>
          <CharString index="75">
            -90 callsubr
            -107 -52 -103 callsubr
          </CharString>
          <CharString index="76">
            -20 rlineto
            -505 vlineto
            return
          </CharString>
          <CharString index="77">
            0 32 430 29 hstem
            113 84 vstem
            258 hmoveto
            32 vlineto
            -61 21 rlineto
            674 -25 vlineto
            -150 -38 rlineto
            -23 vlineto
            91 -10 rlineto
            -603 1 callsubr
            return
          </CharString>
          <CharString index="78">
            -103 callgsubr
            hintmask 11010010
            return
          </CharString>
          <CharString index="79">
            606 -22 callgsubr
            -69 10 callsubr
            return
          </CharString>
          <CharString index="80">
            652 rmoveto
            108 131 rlineto
            17 -75 vlineto
            -55 86 callsubr
            return
          </CharString>
          <CharString index="81">
            32 -27 28 -32 -31 -26 -28 -32 -31 26 -25 31 32 27 25 31 vhcurveto
            return
          </CharString>
          <CharString index="82">
            rmoveto
            1 19 1 15 16 vvcurveto
            129 -60 59 -128 -139 -75 -90 -167 -167 76 -87 149 68 45 12 32 57 vhcurveto
            -6 31 rlineto
            -14 -50 -57 -8 -43 hhcurveto
            -93 -54 71 117 hvcurveto
            32 308 vlineto
            -180 189 rmoveto
            64 28 -39 -82 hvcurveto
            -23 vlineto
            -218 -10 rlineto
            111 5 35 43 86 hhcurveto
            endchar
          </CharString>
          <CharString index="83">
            2 callsubr
            hstemhm
            32 73 -46 74 -74 85 194 84 -18 72 return
          </CharString>
          <CharString index="84">
            rmoveto
            167 171 -6 17 rlineto
            -82 hlineto
            -99 -175 20 -13 rlineto
            return
          </CharString>
          <CharString index="85">
            rmoveto
            -53 30 -53 109 102 53 52 74 66 -51 25 -54 25 vhcurveto
            return
          </CharString>
          <CharString index="86">
            466 hmoveto
            -65 callgsubr
            return
          </CharString>
          <CharString index="87">
            -10 62 383 65 return
          </CharString>
          <CharString index="88">
            652 rmoveto
            128 131 rlineto
            17 -75 vlineto
            -75 86 callsubr
            162 hmoveto
            74 callgsubr
            -75 vlineto
            -75 -133 23 -15 rlineto
            return
          </CharString>
          <CharString index="89">
            rmoveto
            -50 -51 -18 -20 -35 hvcurveto
            16 -35 rlineto
            18 37 34 9 24 hhcurveto
            47 23 return
          </CharString>
          <CharString index="90">
            vvcurveto
            -43 28 -42 67 59 callsubr
            -17 16 rlineto
            -16 -15 -18 -6 -17 hhcurveto
            -33 -21 21 38 return
          </CharString>
          <CharString index="91">
            -129 270 39 305 38 hstem
            41 78 199 75 vstem
            219 652 rmoveto
            -128 -50 -85 -107 -103 50 -87 128 127 47 87 103 107 -46 85 -128 hvcurveto
            99 -190 rmoveto
            -88 -16 -65 -82 -83 -18 65 88 87 17 65 80 83 19 -65 -87 vhcurveto
            endchar
          </CharString>
          <CharString index="92">
            20 rlineto
            33 return
          </CharString>
          <CharString index="93">
            rmoveto
            49 27 -31 -43 -52 -27 -40 -48 -47 hvcurveto
            -147 -143 10 -38 rlineto
            298 hlineto
            9 102 -33 2 -28 -55 rlineto
            -178 hlineto
            114 103 rlineto
            55 51 50 59 60 vvcurveto
            86 -64 31 -78 -52 -51 -17 -20 -36 vhcurveto
            17 -35 rlineto
            17 109 callgsubr
            endchar
          </CharString>
          <CharString index="94">
            33 -28 27 -32 -32 -28 -27 -33 -32 28 -26 32 32 28 26 32 vhcurveto
            return
          </CharString>
          <CharString index="95">
            -27 vlineto
            -146 return
          </CharString>
          <CharString index="96">
            rmoveto
            -67 callsubr
            216 -103 14 19 rlineto
            return
          </CharString>
          <CharString index="97">
            33 545 33 return
          </CharString>
          <CharString index="98">
            rmoveto
            71 -20 -130 -261 -126 261 59 -15 callsubr
            -226 -33 vlineto
            68 -20 167 -334 rlineto
            -171 vlineto
            -5 callsubr
            -107 20 rlineto
            171 vlineto
            169 93 callsubr
          </CharString>
          <CharString index="99">
            167 65 114 139 77 -18 69 -44 47 hvcurveto
            return
          </CharString>
          <CharString index="100">
            28 callgsubr
            -377 vlineto
            return
          </CharString>
          <CharString index="101">
            27 -7 23 hhcurveto
            85 45 75 126 45 hvcurveto
            return
          </CharString>
          <CharString index="102">
            -107 -20 rlineto
            -33 296 33 vlineto
            return
          </CharString>
          <CharString index="103">
            -37 rlineto
            -23 vlineto
            return
          </CharString>
          <CharString index="104">
            rmoveto
            -32 -28 -27 -33 -33 28 -24 32 31 29 24 33 -50 callgsubr
            hvcurveto
            endchar
          </CharString>
          <CharString index="105">
            hstemhm
            0 203 return
          </CharString>
          <CharString index="106">
            -43 callsubr
            endchar
          </CharString>
          <CharString index="107">
            vvcurveto
            -43 27 -42 67 59 callsubr
            -16 16 rlineto
            -16 -16 -18 -6 -16 hhcurveto
            return
          </CharString>
          <CharString index="108">
            vlineto
            -91 -21 rlineto
            -32 236 vlineto
            303 hmoveto
            31 vlineto
            -79 20 -184 225 138 165 95 21 rlineto
            29 -257 -29 vlineto
            87 -21 -148 -183 168 -209 -44 -17 rlineto
            -32 224 vlineto
            return
          </CharString>
          <CharString index="109">
            -55 -29 callgsubr
            return
          </CharString>
          <CharString index="110">
            4 -167 51 152 62 337 65 return
          </CharString>
          <CharString index="111">
            -12 0 44 hstem
            430 100 vstem
            22 hmoveto
            508 38 hlineto
            -229 573 rlineto
            -45 hlineto
            -234 -611 rlineto
            76 44 rmoveto
            170 457 162 -437 rlineto
            -20 -332 vlineto
            endchar
          </CharString>
          <CharString index="112">
            -166 0 28 329 145 hstem
            117 83 vstem
            return
          </CharString>
          <CharString index="113">
            vlineto
            81 19 rlineto
            33 -222 return
          </CharString>
          <CharString index="114">
            32 -20 callsubr
            47 113 hstemhm
            103 84 -43 -11 callgsubr
            -49 84 hintmask 11110010
            return
          </CharString>
          <CharString index="115">
            vlineto
            -64 -19 rlineto
            -24 193 24 vlineto
            -58 19 rlineto
            272 vlineto
            7 25 35 4 31 hhcurveto
            56 14 -10 -37 hvcurveto
            -236 vlineto
            -57 -19 rlineto
            -24 194 24 vlineto
            -65 19 rlineto
            return
          </CharString>
          <CharString index="116">
            171 0 33 -33 56 207 47 249 52 hstemhm
            -14 204 176 79.5 -62.5 81 116 37 4 39 -2 39 hintmask 0111001101000000
            return
          </CharString>
          <CharString index="117">
            -54 -90 callsubr
            return
          </CharString>
          <CharString index="118">
            -10 48 411 51 hstem
            51 70 180 75 vstem
            return
          </CharString>
          <CharString index="119">
            64 -54 66 139 68 -64 75 return
          </CharString>
          <CharString index="120">
            rmoveto
            34 -24 23 -34 -31 -25 -23 -34 -32 25 -26 31 34 24 26 32 vhcurveto
            endchar
          </CharString>
          <CharString index="121">
            107 callgsubr
            -2 callsubr
            -203 750 -204 204 hintmask 10100000
            return
          </CharString>
          <CharString index="122">
            -178 rlineto
            33 hlineto
            endchar
          </CharString>
          <CharString index="123">
            32 -20 callsubr
            -42 42 84 callsubr
            hintmask 10111100
            return
          </CharString>
          <CharString index="124">
            37 -20 callsubr
            hstem
            102 95 callsubr
            vstem
            return
          </CharString>
          <CharString index="125">
            -25 -79 callgsubr
            return
          </CharString>
          <CharString index="126">
            53 hstem
            228 52 vstem
            447 334 rmoveto
            -167 166 -52 -166 -165 -53 165 -164 52 164 167 53 hlineto
            return
          </CharString>
          <CharString index="127">
            -63 callsubr
            hintmask 11111010
            -95 callgsubr
            return
          </CharString>
          <CharString index="128">
            hstem
            38 92 220 90 vstem
            return
          </CharString>
          <CharString index="129">
            rmoveto
            -205 -29 hlineto
            58 -21 167 -421 rlineto
            -100 -43 -30 -32 -73 hhcurveto
            -42 hlineto
            -5 -32 rlineto
            -16 27 27 -7 23 hhcurveto
            85 return
          </CharString>
          <CharString index="130">
            502 rmoveto
            34 hlineto
            16 55 rlineto
            186 hlineto
            -176 -383 75 -6 165 395 -11 39 rlineto
            -295 hlineto
            6 -100 rlineto
            return
          </CharString>
          <CharString index="131">
            hstemhm
            242 75 -56 77 hintmask 00000000
            hintmask 11110000
            197 return
          </CharString>
          <CharString index="132">
            -21 -21 callgsubr
            41 58 callgsubr
            -5 120 51 -4 callgsubr
            hintmask 0111101010000000
            return
          </CharString>
          <CharString index="133">
            35 -2 callgsubr
            return
          </CharString>
          <CharString index="134">
            rmoveto
            64 179 -13 14 -70 -15 -14 15 callsubr
          </CharString>
          <CharString index="135">
            rmoveto
            -26 -91 rlineto
            -216 221 142 hlineto
            24 -69 rlineto
            36 181 -36 hlineto
            -53 callgsubr
            return
          </CharString>
          <CharString index="136">
            vstem
            411 119 rmoveto
            30 50 -274 139 274 139 -30 50 -353 -189 353 -189 rlineto
            return
          </CharString>
          <CharString index="137">
            129 19 callgsubr
            114 58 355 56 vstem
            return
          </CharString>
          <CharString index="138">
            -262 rmoveto
            -53 callgsubr
            return
          </CharString>
          <CharString index="139">
            10 -33 hvcurveto
            216 192 rmoveto
            -20 -25 -34 return
          </CharString>
          <CharString index="140">
            -37 -27 callgsubr
            return
          </CharString>
          <CharString index="141">
            -12 callsubr
            -37 rlineto
            return
          </CharString>
          <CharString index="142">
            90 20 rlineto
            33 -263 -78 callgsubr
            return
          </CharString>
          <CharString index="143">
            102 callsubr
            117 83 229 83 vstem
            return
          </CharString>
          <CharString index="144">
            128 -20 rlineto
            89 vlineto
            -128 -19 18 128 rlineto
            -86 hlineto
            19 -128 -126 19 rlineto
            -89 vlineto
            return
          </CharString>
          <CharString index="145">
            -210 vvcurveto
            -211 9 -77 144 -41 vhcurveto
            11 24 rlineto
            -100 45 0 111 149 vvcurveto
            endchar
          </CharString>
          <CharString index="146">
            68 hstem
            34 46 232 44 vstem
            356 return
          </CharString>
          <CharString index="147">
            -63 -31 -22 -41 -50 vvcurveto
            return
          </CharString>
          <CharString index="148">
            -219 27 116 30 return
          </CharString>
          <CharString index="149">
            rmoveto
            33 100 rlineto
            return
          </CharString>
          <CharString index="150">
            25 31 vhcurveto
            195 hmoveto
            31 -28 26 -29 -31 -27 -26 -31 -31 27 -25 31 29 28 25 31 vhcurveto
            return
          </CharString>
          <CharString index="151">
            -83 -211 14 -17 76 18 15 205 -22 5 rlineto
            return
          </CharString>
          <CharString index="152">
            -125 -10 54 405 51 return
          </CharString>
          <CharString index="153">
            29 -21 callgsubr
            41 33 119 46 -2 callsubr
            34 120 12 217 hintmask 01111000
            return
          </CharString>
          <CharString index="154">
            248 rmoveto
            135 -177 34 22 -81 155 81 155 -34 23 -135 -178 rlineto
            return
          </CharString>
          <CharString index="155">
            40 59 26 hstemhm
            return
          </CharString>
          <CharString index="156">
            93 -21 callgsubr
            32 48 539 48 hstem
            41 90 138 120 138 90 vstem
            return
          </CharString>
          <CharString index="157">
            hhcurveto
            79 21 -13 -53 hvcurveto
            -321 vlineto
            return
          </CharString>
          <CharString index="158">
            -33 callgsubr
            45 54 hstemhm
            40 87 5 34 152 83 -68 33 hintmask 11101100
            return
          </CharString>
          <CharString index="159">
            -56 -21 callgsubr
            30 62 395 54 hstemhm
            40 87 62 120 9 83 hintmask 01110100
            return
          </CharString>
          <CharString index="160">
            -36 callgsubr
            107 callsubr
            100 83 132 43 11 54 76 57 return
          </CharString>
          <CharString index="161">
            70 -30 70 hstemhm
            return
          </CharString>
          <CharString index="162">
            -18 -21 callgsubr
            31 -10 callgsubr
            hstem
            41 92 81 120 80 92 vstem
            return
          </CharString>
          <CharString index="163">
            -53 -64 28 127 132 64 26 53 51 return
          </CharString>
          <CharString index="164">
            33 247 49 249 106 callsubr
            return
          </CharString>
          <CharString index="165">
            48 539 49 hstem
            41 90 return
          </CharString>
          <CharString index="166">
            64 30 50 0 vhcurveto
            return
          </CharString>
          <CharString index="167">
            572 0 41 -41 54 504 53 hstemhm
            95 callgsubr
            hintmask 01111000
            return
          </CharString>
          <CharString index="168">
            46 -27 vhcurveto
            hintmask 11100100
            40 callsubr
            hintmask 11011000
            76 241 rmoveto
            return
          </CharString>
          <CharString index="169">
            rmoveto
            114 8 77 58 69 hhcurveto
            10 17 -2 -3 21 hvcurveto
            5 36 rlineto
            return
          </CharString>
          <CharString index="170">
            83 58 -83 415 hlineto
            -62 7 -314 -439 14 -41 rlineto
            284 return
          </CharString>
          <CharString index="171">
            -206 -138 834 hstem
            143 73 vstem
            216 696 rmoveto
            -73 return
          </CharString>
          <CharString index="172">
            21 32 -7 -8 17 return
          </CharString>
          <CharString index="173">
            -287 -166 38 787.5 36.5 hstem
            return
          </CharString>
          <CharString index="174">
            32 callsubr
            -14 -30 hhcurveto
            -41 -33 return
          </CharString>
          <CharString index="175">
            740 rmoveto
            -64 -179 12 -14 72 15 13 178 rlineto
            -33 hlineto
            return
          </CharString>
          <CharString index="176">
            rmoveto
            384 52 -384 -52 hlineto
            endchar
          </CharString>
          <CharString index="177">
            -30 callgsubr
            99 82 vstem
            return
          </CharString>
          <CharString index="178">
            -62 callgsubr
            263 33 vlineto
            return
          </CharString>
          <CharString index="179">
            149 hstem
            12 230 vstem
            return
          </CharString>
          <CharString index="180">
            hstem
            233 68 vstem
            233 return
          </CharString>
          <CharString index="181">
            rlineto
            -20 vlineto
            64 -7 rlineto
            return
          </CharString>
          <CharString index="182">
            -47 0 54 504 53 return
          </CharString>
          <CharString index="183">
            hstem
            128 83 return
          </CharString>
          <CharString index="184">
            vlineto
            -113 -28 74 callsubr
            -276 vlineto
            -64 return
          </CharString>
          <CharString index="185">
            -56 200 52 111 54 hstem
            63 384 vstem
            447 return
          </CharString>
          <CharString index="186">
            58 -15 callsubr
            return
          </CharString>
          <CharString index="187">
            251 vlineto
            60 -47 20 -52 -47 -59 -16 -13 -28 vhcurveto
            return
          </CharString>
          <CharString index="188">
            34 callgsubr
            -112 -28 -165 -152 return
          </CharString>
          <CharString index="189">
            -82 callsubr
            -146 return
          </CharString>
          <CharString index="190">
            rmoveto
            222 314 rlineto
            -314 -222 vlineto
            endchar
          </CharString>
          <CharString index="191">
            hstemhm
            87 callgsubr
            76 82 return
          </CharString>
          <CharString index="192">
            -29 106 -125 -134 -22 -91 return
          </CharString>
          <CharString index="193">
            -133 22 -15 rlineto
            return
          </CharString>
          <CharString index="194">
            0 88 callgsubr
            return
          </CharString>
          <CharString index="195">
            hintmask 11110000
            68 27 60 47 84 vvcurveto
            90 -72 43 -90 return
          </CharString>
          <CharString index="196">
            vlineto
            -91 -20 rlineto
            -33 278 34 vlineto
            -104 19 rlineto
            return
          </CharString>
          <CharString index="197">
            -8 69 116 69 128 68 117 68 hstem
            return
          </CharString>
          <CharString index="198">
            300 611 rmoveto
            -262 59 callgsubr
            return
          </CharString>
          <CharString index="199">
            rmoveto
            -149 0 -111 -100 -45 vhcurveto
            11 -24 rlineto
            return
          </CharString>
          <CharString index="200">
            111 callsubr
            endchar
          </CharString>
          <CharString index="201">
            2 -36 callsubr
            return
          </CharString>
          <CharString index="202">
            84 217 84 return
          </CharString>
          <CharString index="203">
            54 callsubr
            41 90 396 90 hintmask 11101100
            return
          </CharString>
          <CharString index="204">
            -3 26 hhcurveto
            141 74 100 143 143 return
          </CharString>
          <CharString index="205">
            vlineto
            132 48 rlineto
            45 vlineto
            -132 -48 rlineto
            return
          </CharString>
          <CharString index="206">
            rmoveto
            -33 -23 80 -155 -80 -155 33 -22 return
          </CharString>
          <CharString index="207">
            -105 0 51 387 53 hstem
            36 386 vstem
            return
          </CharString>
          <CharString index="208">
            54 32 40 50 63 18 -54 -101 hvcurveto
            endchar
          </CharString>
          <CharString index="209">
            75 callgsubr
            hstem
            return
          </CharString>
          <CharString index="210">
            51 537 33 hstem
            100 83 return
          </CharString>
          <CharString index="211">
            hstem
            256 75 vstem
            180 return
          </CharString>
          <CharString index="212">
            52 hstem
            19 217 vstem
            19 return
          </CharString>
          <CharString index="213">
            33 76 callsubr
            return
          </CharString>
          <CharString index="214">
            65 48 callsubr
            return
          </CharString>
          <CharString index="215">
            vlineto
            -89 -20 rlineto
            -33 return
          </CharString>
          <CharString index="216">
            rmoveto
            -33 vlineto
            71 -20 return
          </CharString>
          <CharString index="217">
            33 167 34 return
          </CharString>
          <CharString index="218">
            334 72 -15 callsubr
            -206 -33 vlineto
            return
          </CharString>
          <CharString index="219">
            rlineto
            5 -21 -22 3 -21 hhcurveto
            -85 -134 return
          </CharString>
          <CharString index="220">
            77 hstem
            39 64 296 64 vstem
            463 return
          </CharString>
          <CharString index="221">
            -21 callgsubr
            41 -10 callsubr
            hstemhm
            return
          </CharString>
          <CharString index="222">
            -128 -130 -64 -31 -51 hvcurveto
            endchar
          </CharString>
        <CharString name=".notdef">
          -362 endchar
        </CharString>
        <CharString name="A">
          -39 callsubr
          131 52 42 callsubr
          hintmask 11101000
          -102 callsubr
          hintmask 11010000
          -89 callgsubr
          endchar
        </CharString>
        <CharString name="AE">
          9 callsubr
          658 147 -48 callgsubr
        </CharString>
        <CharString name="AEacute">
          9 callsubr
          536 753 -48 callsubr
          122 -606 -48 callgsubr
        </CharString>
        <CharString name="Aacute">
          -39 callsubr
          214 650 -98 callgsubr
          -83 -598 42 callsubr
          hintmask 11101000
          -102 callsubr
          hintmask 11010000
          -89 callgsubr
          endchar
        </CharString>
        <CharString name="Abreve">
          -34 callsubr
          467 54 -2 callsubr
          -26 34 158 217 -208 33 hintmask 11101010
          295 665 -92 callgsubr
          -164 -613 42 callsubr
          hintmask 11110100
          -102 callsubr
          hintmask 11101010
          -89 callgsubr
          endchar
        </CharString>
        <CharString name="Acircumflex">
          -39 callsubr
          398 651 -100 callgsubr
          -267 -599 42 callsubr
          hintmask 11101000
          -102 callsubr
          hintmask 11010000
          -89 callgsubr
          endchar
        </CharString>
        <CharString name="Adieresis">
          -34 callsubr
          469 113 -2 callsubr
          -71 -11 callgsubr
          -72 217 hintmask 11101100
          246 722 -103 callgsubr
          -310 -670 42 callsubr
          hintmask 11110010
          -102 callsubr
          hintmask 11101100
          -89 callgsubr
          endchar
        </CharString>
        <CharString name="Agrave">
          -39 callsubr
          362 648 -80 callgsubr
          -231 -596 42 callsubr
          hintmask 11101000
          -102 callsubr
          hintmask 11010000
          -89 callgsubr
          endchar
        </CharString>
        <CharString name="Amacron">
          -34 callsubr
          499 52 -2 callsubr
          -21 217 -30 217 hintmask 00000000
          hintmask 11101000
          182 749 -53 callsubr
          -51 -697 42 callsubr
          hintmask 11110100
          -102 callsubr
          hintmask 11101000
          -89 callgsubr
          endchar
        </CharString>
        <CharString name="Aogonek">
          29 -236 43 193 33 119 46 hstem
          0 207 90 65 62 170 vstem
          297 -151 rmoveto
          -39 26 -46 66 59 callsubr
          -16 16 rlineto
          -16 -15 -17 -7 -18 hhcurveto
          -30 -25 22 46 48 39 77 67 hvcurveto
          126 33 hlineto
          -72 19 -202 572 -61 -13 -187 -558 -72 -20 rlineto
          -33 207 33 vlineto
          -71 20 32 99 rlineto
          225 hlineto
          28 -80 rlineto
          2 -7 1 -4 -5 -43 -127 -51 -113 vvcurveto
          -19 639 rmoveto
          100 -290 rlineto
          -196 hlineto
          96 290 rlineto
          endchar
        </CharString>
        <CharString name="Aring">
          -34 callsubr
          435 35 120 34 -2 callsubr
          -16 50 102 49 -19 217 hintmask 11110110
          388 728 -69 callgsubr
          -157 -736 42 callsubr
          hintmask 11111001
          -102 callsubr
          hintmask 11110110
          -89 callgsubr
          endchar
        </CharString>
        <CharString name="Aringacute">
          -34 callsubr
          435 35 120 34 -2 callsubr
          -7 50 102 49 -28 217 hintmask 11110110
          253 831 -98 callgsubr
          144 -103 -69 callgsubr
          -166 -736 42 callsubr
          hintmask 11111001
          -102 callsubr
          hintmask 11110110
          -89 callgsubr
          endchar
        </CharString>
        <CharString name="Atilde">
          -34 callsubr
          471 70 -30 70 -2 callsubr
          -203 586 -217 217 hintmask 11100100
          436 762 -31 callgsubr
          -305 -710 42 callsubr
          hintmask 11101010
          -102 callsubr
          hintmask 11100100
          -89 callgsubr
          endchar
        </CharString>
        <CharString name="B">
          -7 0 41 258 41 228 43 hstemhm
          128 83 185 86 -68 89 hintmask 11110100
          350 323 rmoveto
          hintmask 11111000
          86 16 46 48 79 vvcurveto
          81 -56 64 -149 vhcurveto
          -239 -33 hlineto
          -75 callgsubr
          245 vlineto
          hintmask 11110100
          138 82 69 100 78 -46 54 -107 22 hvcurveto
          hintmask 11111000
          -92 17 rmoveto
          -47 219 hlineto
          5 21 21 4 20 hhcurveto
          67 56 -34 -77 -81 -54 -36 -84 hvcurveto
          -47 -291 rmoveto
          250 41 vlineto
          hintmask 11110100
          105 57 -41 -84 -98 -67 -35 -76 hvcurveto
          hintmask 11111000
          -19 -21 2 6 -20 hvcurveto
          endchar
        </CharString>
        <CharString name="C">
          -13 50 callgsubr
          502 23 -87 callgsubr
        </CharString>
        <CharString name="Cacute">
          -39 50 callgsubr
          227 650 -98 callgsubr
          275 -627 -87 callgsubr
        </CharString>
        <CharString name="Cacute.loclPLK">
          -13 50 callgsubr
          317 -27 callsubr
          185 -629 -87 callgsubr
        </CharString>
        <CharString name="Ccaron">
          -39 50 callgsubr
          199 800 -86 callgsubr
          303 -777 -87 callgsubr
        </CharString>
        <CharString name="Ccedilla">
          -39 41 callsubr
          37 58 callsubr
          216 65 vstem
          324 -9 rmoveto
          76 49 12 20 53 hvcurveto
          -8 115 rlineto
          -37 hlineto
          -25 -84 rlineto
          -11 -35 -33 -4 -27 hhcurveto
          -158 -48 140 130 138 40 131 169 28 30 -4 -7 34 hvcurveto
          25 -97 rlineto
          36 hlineto
          9 127 rlineto
          14 -44 -50 16 -84 hhcurveto
          -205 -78 -144 -174 -164 71 -136 175 -16 hvcurveto
          -20 -60 -77 callsubr
          12 37 rlineto
          7 hlineto
          endchar
        </CharString>
        <CharString name="Ccircumflex">
          -13 50 callgsubr
          439 651 -100 callgsubr
          63 -628 -87 callgsubr
        </CharString>
        <CharString name="Cdotaccent">
          -13 -9 48 539 49 41 117 hstem
          41 90 135 120 vstem
          386 -38 callsubr
          116 -702 -87 callgsubr
        </CharString>
        <CharString name="D">
          74 0 41 523 47 hstem
          128 83 297 90 vstem
          300 611 -57 callgsubr
          endchar
        </CharString>
        <CharString name="Dcaron">
          65 0 41 523 47 hstem
          95 callgsubr
          vstem
          199 800 -86 callgsubr
          101 -189 -57 callgsubr
          endchar
        </CharString>
        <CharString name="Dcroat">
          -45 callsubr
        </CharString>
        <CharString name="E">
          -46 callgsubr
          383 389 rmoveto
          -53 callgsubr
          hintmask 11111100
          -92 callsubr
          vlineto
          hintmask 11111010
          -89 callsubr
          endchar
        </CharString>
        <CharString name="Eacute">
          -46 callgsubr
          209 650 -98 callgsubr
          174 -261 rmoveto
          -53 callgsubr
          hintmask 11111100
          -92 callsubr
          vlineto
          hintmask 11111010
          -89 callsubr
          endchar
        </CharString>
        <CharString name="Ebreve">
          -52 callsubr
          54 54 54 callgsubr
          -62 80 callgsubr
          -6 -4 callgsubr
          hintmask 0000000000000000
          hintmask 1111011001000000
          273 665 -92 callgsubr
          hintmask 1111100101000000
          110 -276 rmoveto
          -53 callgsubr
          hintmask 1111100110000000
          -92 callsubr
          vlineto
          hintmask 1111100101000000
          -89 callsubr
          endchar
        </CharString>
        <CharString name="Ecaron">
          -46 callgsubr
          172 800 -86 callgsubr
          211 -411 rmoveto
          -53 callgsubr
          hintmask 11111100
          -92 callsubr
          vlineto
          hintmask 11111010
          -89 callsubr
          endchar
        </CharString>
        <CharString name="Ecircumflex">
          -46 callgsubr
          393 651 -100 callgsubr
          -10 31 callsubr
          hintmask 11111100
          -92 callsubr
          vlineto
          hintmask 11111010
          -89 callsubr
          endchar
        </CharString>
        <CharString name="Edieresis">
          -52 callsubr
          56 113 hstemhm
          130 114 -110 83 107 115 -56 -4 callgsubr
          hintmask 0000000000000000
          hintmask 1111101001000000
          244 722 -103 callgsubr
          hintmask 1110010101000000
          -56 -333 rmoveto
          -53 callgsubr
          hintmask 1110010110000000
          -92 callsubr
          vlineto
          hintmask 1110010101000000
          -89 callsubr
          endchar
        </CharString>
        <CharString name="Edotaccent">
          -52 callsubr
          57 117 54 callgsubr
          19 120 27 -4 callgsubr
          hintmask 0000000000000000
          hintmask 1111111010000000
          356 -38 callsubr
          hintmask 1110101010000000
          27 -336 rmoveto
          -53 callgsubr
          hintmask 1110101100000000
          -92 callsubr
          vlineto
          hintmask 1110101010000000
          -89 callsubr
          endchar
        </CharString>
        <CharString name="Egrave">
          -46 callgsubr
          387 650 -80 callgsubr
          -4 -261 rmoveto
          -53 callgsubr
          hintmask 11111100
          -92 callsubr
          vlineto
          hintmask 11111010
          -89 callsubr
          endchar
        </CharString>
        <CharString name="Emacron">
          -52 callsubr
          86 52 54 callgsubr
          -45 217 -6 -4 callgsubr
          hintmask 0000000000000000
          hintmask 1111010010000000
          172 749 -53 callsubr
          hintmask 1111101010000000
          211 -360 rmoveto
          -53 callgsubr
          hintmask 1111101100000000
          -92 callsubr
          vlineto
          hintmask 1111101010000000
          -89 callsubr
          endchar
        </CharString>
        <CharString name="Eng">
          127 76 callgsubr
          -10 callsubr
          hstem
          61 callgsubr
          vstem
          462 -167 rmoveto
          75 48 54 170 hvcurveto
          502 6 callsubr
          -50 callsubr
          -506 vlineto
          -80 -20 rlineto
          -33 224 33 vlineto
          -86 20 rlineto
          435 vlineto
          327 -467 rlineto
          -41 vlineto
          -39 -16 -54 -53 vhcurveto
          -46 hlineto
          -5 -31 rlineto
          -17 33 32 -6 16 hhcurveto
          endchar
        </CharString>
        <CharString name="Eogonek">
          -21 -236 44 192 58 callgsubr
          110 67 -11 -4 callgsubr
          hintmask 1111101010000000
          499 -170 rmoveto
          hintmask 1111110010000000
          -16 -16 -18 -6 -16 hhcurveto
          -34 -21 21 38 51 31 51 30 31 hvcurveto
          43 46 callgsubr
          -26 -91 rlineto
          -216 221 hlineto
          hintmask 1111101010000000
          142 hlineto
          24 -69 rlineto
          36 181 -36 hlineto
          -53 callgsubr
          hintmask 1111110100000000
          -92 callsubr
          382 vlineto
          -67 -53 -27 -56 -42 vvcurveto
          -43 27 -42 67 59 callsubr
          hintmask 1111101010000000
          -16 16 rlineto
          endchar
        </CharString>
        <CharString name="Eth">
          -45 callsubr
        </CharString>
        <CharString name="Euro">
          -63 -6 53 170 43 69 43 195 52 hstem
          109 83 vstem
          192 307 rmoveto
          22 199 vlineto
          8 43 rlineto
          -205 hlineto
          165 13 59 30 81 hhcurveto
          27 18 -4 -5 18 hvcurveto
          21 -80 rlineto
          32 hlineto
          15 113 rlineto
          17 -44 -47 11 -58 hhcurveto
          -93 -105 -38 -209 -19 hvcurveto
          -71 hlineto
          -8 -43 rlineto
          76 -22 hlineto
          -17 0 -16 1 -14 vhcurveto
          -69 hlineto
          -8 -43 rlineto
          80 hlineto
          -191 23 102 -32 108 hhcurveto
          52 39 8 17 37 hvcurveto
          -8 41 rlineto
          -9 -35 -31 -4 -26 hhcurveto
          -121 -42 77 93 -13 hvcurveto
          193 hlineto
          8 43 rlineto
          -206 hlineto
          -1 14 0 17 16 vvcurveto
          endchar
        </CharString>
        <CharString name="F">
          -67 0 33 234 46 246 52 hstemhm
          133 84 166 36 15 39 hintmask 00000000
          hintmask 11111100
          473 611 rmoveto
          -435 -33 hlineto
          95 -31 callsubr
          -95 -20 rlineto
          -33 292 34 vlineto
          -113 20 rlineto
          213 vlineto
          hintmask 11111000
          142 hlineto
          24 -69 rlineto
          36 181 -36 hlineto
          -21 -66 rlineto
          -145 246 hlineto
          hintmask 11111100
          196 hlineto
          21 -80 rlineto
          39 132 hlineto
          endchar
        </CharString>
        <CharString name="G">
          26 callsubr
          448 567 -99 callsubr
          endchar
        </CharString>
        <CharString name="G_tilde.loclGUA">
          16 -11 48 217 34 290 49 72 54 callsubr
          41 90 305 83 hintmask 11110110
          473 57 callgsubr
          hintmask 11101110
          -100 callsubr
          hintmask 11110110
          -82 callsubr
          -25 -225 -99 callsubr
          endchar
        </CharString>
        <CharString name="Gbreve">
          16 -11 48 217 34 290 49 38 54 hstemhm
          41 90 72 80 callgsubr
          -1 83 hintmask 11111101
          321 665 rmoveto
          hintmask 11111110
          -94 callgsubr
          hintmask 11111101
          -59 25 -55 93 vhcurveto
          127 -98 -99 callsubr
          endchar
        </CharString>
        <CharString name="Gcaron">
          26 callsubr
          186 800 -86 callgsubr
          262 -233 -99 callsubr
          endchar
        </CharString>
        <CharString name="Gcircumflex">
          26 callsubr
          413 651 -100 callgsubr
          35 -84 -99 callsubr
          endchar
        </CharString>
        <CharString name="Gcommaaccent">
          16 -2 callgsubr
          448 567 -99 callsubr
          -138 -788 27 callsubr
        </CharString>
        <CharString name="Gdotaccent">
          35 -11 48 217 34 290 49 41 117 hstem
          41 90 109 120 76 83 vstem
          360 -38 callsubr
          88 -158 -99 callsubr
          endchar
        </CharString>
        <CharString name="H">
          158 0 57 callsubr
          302 83 vstem
          513 53 -60 callsubr
          endchar
        </CharString>
        <CharString name="Hbar">
          158 0 33 217 49 94 46 139 106 callsubr
          302 83 vstem
          596 53 rmoveto
          340 86 46 -86 120 vlineto
          89 19 rlineto
          33 -261 -33 vlineto
          89 -19 rlineto
          -120 -302 120 vlineto
          89 19 rlineto
          33 -261 -33 vlineto
          89 -19 rlineto
          -120 -86 -46 86 -340 108 callsubr
          261 33 vlineto
          -89 20 rlineto
          197 302 -197 108 callsubr
          262 33 vlineto
          -90 20 rlineto
          -385 246 rmoveto
          94 302 -94 -302 vlineto
          endchar
        </CharString>
        <CharString name="Hcircumflex">
          158 0 57 callsubr
          302 83 vstem
          475 651 -100 callgsubr
          38 -598 -60 callsubr
          endchar
        </CharString>
        <CharString name="I">
          -226 19 callgsubr
          128 83 vstem
          38 611 -91 callgsubr
          endchar
        </CharString>
        <CharString name="IJ">
          64 callgsubr
          38 611 -91 callgsubr
          347 -760 -72 callgsubr
        </CharString>
        <CharString name="Iacute">
          -226 19 callgsubr
          128 83 vstem
          73 650 -98 callgsubr
          -35 -39 -91 callgsubr
          endchar
        </CharString>
        <CharString name="Iacute_J.loclNLD">
          64 callgsubr
          124 650 -98 callgsubr
          306 hmoveto
          214 103 rlineto
          18 vlineto
          -76 28 -154 -130 16 -19 rlineto
          -392 -39 -91 callgsubr
          347 -760 -72 callgsubr
        </CharString>
        <CharString name="Ibreve">
          -226 -36 callsubr
          54 54 hstem
          53 34 41 83 43 33 vstem
          171 665 -92 callgsubr
          -133 -54 -91 callgsubr
          endchar
        </CharString>
        <CharString name="Icircumflex">
          -226 19 callgsubr
          128 83 vstem
          282 651 -100 callgsubr
          -244 -40 -91 callgsubr
          endchar
        </CharString>
        <CharString name="Idieresis">
          -226 -36 callsubr
          56 113 hstemhm
          16 114 -2 83 -1 115 hintmask 00000000
          hintmask 11110100
          130 722 -103 callgsubr
          hintmask 11001000
          -287 -111 -91 callgsubr
          endchar
        </CharString>
        <CharString name="Idotaccent">
          -226 -36 callsubr
          57 117 hstemhm
          109 120 -101 83 hintmask 00000000
          hintmask 11110000
          229 -38 callsubr
          hintmask 11001000
          -191 -114 -91 callgsubr
          endchar
        </CharString>
        <CharString name="Igrave">
          -226 19 callgsubr
          128 83 vstem
          269 650 -80 callgsubr
          -231 -39 -91 callgsubr
          endchar
        </CharString>
        <CharString name="Imacron">
          -226 -36 callsubr
          86 52 76 callsubr
          vstem
          61 749 -53 callsubr
          -23 -138 -91 callgsubr
          endchar
        </CharString>
        <CharString name="Iogonek">
          -226 -236 44 192 -10 callsubr
          hstemhm
          112 68 -52 83 hintmask 11101000
          301 578 rmoveto
          -19 callgsubr
          185 vlineto
          hintmask 11110000
          -69 -36 -42 -59 -56 -17 callsubr
          51 28 58 93 24 hvcurveto
          hintmask 11101000
          83 callgsubr
        </CharString>
        <CharString name="Itilde">
          -226 -36 callsubr
          88 54 callsubr
          128 83 hintmask 11101000
          315 57 callgsubr
          hintmask 11011000
          -100 callsubr
          hintmask 11101000
          -82 callsubr
          -277 -181 -91 callgsubr
          endchar
        </CharString>
        <CharString name="J">
          82 callgsubr
          55 -149 -72 callgsubr
        </CharString>
        <CharString name="Jcircumflex">
          82 callgsubr
          259 651 -100 callgsubr
          -204 -800 -72 callgsubr
        </CharString>
        <CharString name="K">
          -32 callgsubr
          endchar
        </CharString>
        <CharString name="Kcommaaccent">
          -32 callgsubr
          -270 -221 rmoveto
          65 179 -13 14 -70 -15 -15 15 callsubr
        </CharString>
        <CharString name="L">
          36 callgsubr
          -21 callsubr
          endchar
        </CharString>
        <CharString name="Lacute">
          36 callgsubr
          110 650 -98 callgsubr
          356 -650 rmoveto
          -65 callgsubr
          endchar
        </CharString>
        <CharString name="Lcaron">
          36 callgsubr
          49 800 -86 callgsubr
          417 -800 rmoveto
          -65 callgsubr
          endchar
        </CharString>
        <CharString name="Lcommaaccent">
          36 callgsubr
          -21 callsubr
          -208 -221 rmoveto
          64 179 -13 14 -70 -15 -15 -178 rlineto
          34 hlineto
          endchar
        </CharString>
        <CharString name="Ldot">
          -87 0 56 320 115 87 33 hstemhm
          128 83 136 114 -33 38 hintmask 10110100
          -21 callsubr
          hintmask 11111000
          -5 434 13 callsubr
        </CharString>
        <CharString name="Lslash">
          36 callgsubr
          428 147 rmoveto
          -25 -91 rlineto
          -192 248 hlineto
          123 69 -24 39 -99 -57 rlineto
          203 -33 callsubr
          -263 -33 vlineto
          90 -20 rlineto
          -250 vlineto
          -92 -53 22 -37 70 39 rlineto
          -204 -62 callgsubr
          428 147 -38 vlineto
          endchar
        </CharString>
        <CharString name="M">
          229 19 callgsubr
          111.5 54 429.5 79.5 vstem
          247 hmoveto
          33 vlineto
          -89 20 15 458 187 -521 50 10 177 508 16 -455 -89 -20 rlineto
          -33 262 33 vlineto
          -92 20 -19 505 70 callgsubr
          -191 vlineto
          -165 -489 -174 489 rlineto
          -185 -33 hlineto
          80 -19 -17 -506 -81 -20 rlineto
          -33 225 vlineto
          endchar
        </CharString>
        <CharString name="N">
          127 19 callgsubr
          61 callgsubr
          vstem
          444 -9 callgsubr
          endchar
        </CharString>
        <CharString name="Nacute">
          30 callsubr
          266 650 -98 callgsubr
          176 -39 -94 callsubr
          endchar
        </CharString>
        <CharString name="Nacute.loclPLK">
          127 19 callgsubr
          61 callgsubr
          vstem
          337 -27 callsubr
          107 -41 -94 callsubr
          endchar
        </CharString>
        <CharString name="Ncaron">
          30 callsubr
          239 800 -86 callgsubr
          203 -189 -94 callsubr
          endchar
        </CharString>
        <CharString name="Ncommaaccent">
          30 callsubr
          442 -9 callgsubr
          -100 -832 rmoveto
          65 179 -14 14 -70 -15 -14 15 callsubr
        </CharString>
        <CharString name="Ntilde">
          129 -36 callsubr
          58 54 callsubr
          114 58 355 56 hintmask 11101100
          501 762 -64 callsubr
          hintmask 11011100
          -100 callsubr
          hintmask 11101100
          -82 callsubr
          -59 -151 -94 callsubr
          endchar
        </CharString>
        <CharString name="O">
          -44 callsubr
          330 626 rmoveto
          -106 callsubr
          endchar
        </CharString>
        <CharString name="OE">
          254 0 -34 callgsubr
          hstemhm
          41 89 288 83 163 37 15 38 -13 39 hintmask 00000000
          hintmask 11111110
          754 611 rmoveto
          -424 hlineto
          -208 -81 -129 -174 -174 83 -134 206 hvcurveto
          hintmask 11111101
          450 46 callgsubr
          -27 -91 rlineto
          -213 221 140 hlineto
          23 -69 rlineto
          37 181 -37 hlineto
          -21 -66 rlineto
          -142 236 hlineto
          hintmask 11111110
          193 hlineto
          22 -80 rlineto
          38 132 hlineto
          hintmask 11111101
          -336 -53 rmoveto
          -505 vlineto
          -6 -27 -30 -1 -28 hhcurveto
          -166 -37 151 111 113 33 145 161 43 13 -2 -6 38 hvcurveto
          endchar
        </CharString>
        <CharString name="Oacute">
          -44 callsubr
          283 650 -98 callgsubr
          47 -24 rmoveto
          -106 callsubr
          endchar
        </CharString>
        <CharString name="Oacute.loclPLK">
          -44 callsubr
          320 -27 callsubr
          10 -26 rmoveto
          -106 callsubr
          endchar
        </CharString>
        <CharString name="Obreve">
          -42 callsubr
          39 54 hstem
          41 90 81 80 callgsubr
          81 90 vstem
          330 665 -92 callgsubr
          -39 vmoveto
          -106 callsubr
          endchar
        </CharString>
        <CharString name="Ocircumflex">
          -44 callsubr
          443 651 -100 callgsubr
          -113 -25 rmoveto
          -106 callsubr
          endchar
        </CharString>
        <CharString name="Odieresis">
          -42 callsubr
          42 113 hstem
          41 90 44 -11 callgsubr
          43 90 vstem
          289 723 -103 callgsubr
          -154 -97 rmoveto
          -106 callsubr
          endchar
        </CharString>
        <CharString name="Ograve">
          -44 callsubr
          422 650 -80 callgsubr
          -92 -24 rmoveto
          -106 callsubr
          endchar
        </CharString>
        <CharString name="Ohorn">
          -42 callsubr
          hstemhm
          41 90 396 90 -31 82 hintmask 00000000
          hintmask 11101000
          668 646 -75 callsubr
        </CharString>
        <CharString name="Ohungarumlaut">
          -44 callsubr
          216 652 rmoveto
          74 callgsubr
          -74 vlineto
          -76 -133 23 -15 rlineto
          161 hmoveto
          74 callgsubr
          -74 vlineto
          -76 -133 23 -15 rlineto
          -47 -26 rmoveto
          -106 callsubr
          endchar
        </CharString>
        <CharString name="Omacron">
          -42 callsubr
          71 52 hstem
          41 90 89 217 90 90 vstem
          220 749 -53 callsubr
          110 -123 rmoveto
          -106 callsubr
          endchar
        </CharString>
        <CharString name="Oslash">
          -44 callsubr
          451 606 -56 callsubr
        </CharString>
        <CharString name="Oslashacute">
          -44 callsubr
          447 753 -48 callsubr
          4 -147 -56 callsubr
        </CharString>
        <CharString name="Otilde">
          -42 callsubr
          43 96 callsubr
          474 762 -64 callsubr
          hintmask 11011100
          -100 callsubr
          hintmask 11101100
          -82 callsubr
          -144 -136 rmoveto
          -106 callsubr
          endchar
        </CharString>
        <CharString name="P">
          -44 0 33 216 40 280 42 hstem
          130 83 191 92 vstem
          268 611 rmoveto
          -229 -35 hlineto
          91 -22 rlineto
          -501 89 callsubr
          206 vlineto
          -7 28 28 -3 25 hhcurveto
          110 92 64 128 115 -92 55 -136 hvcurveto
          -55 -314 rmoveto
          262 vlineto
          6 19 25 4 20 hhcurveto
          72 55 -40 -96 -108 -61 -36 -71 -20 -20 1 7 -19 hvcurveto
          endchar
        </CharString>
        <CharString name="Q">
          93 -151 53 97 42 537 48 hstem
          41 90 397 90 vstem
          682 -126 rmoveto
          -3 28 rlineto
          -81 hlineto
          -24 -94 44 53 -111 hvcurveto
          165 19 84 121 169 vvcurveto
          174 -79 144 -209 -208 -81 -144 -174 -150 81 -127 149 -31 vhcurveto
          180 -109 rlineto
          -41 68 22 -1 36 hhcurveto
          35 47 14 11 23 hvcurveto
          -551 434 rmoveto
          113 32 157 161 167 37 -157 -113 -111 -39 -156 -156 -159 -43 156 111 vhcurveto
          endchar
        </CharString>
        <CharString name="R">
          -13 callgsubr
          -35 callsubr
          endchar
        </CharString>
        <CharString name="Racute">
          -13 callgsubr
          191 650 -98 callgsubr
          250 -650 rmoveto
          -93 callsubr
          endchar
        </CharString>
        <CharString name="Rcaron">
          -13 callgsubr
          165 800 -86 callgsubr
          276 -800 rmoveto
          -93 callsubr
          endchar
        </CharString>
        <CharString name="Rcommaaccent">
          -13 callgsubr
          -35 callsubr
          32 -540 27 callsubr
        </CharString>
        <CharString name="S">
          17 callgsubr
          45 -41 callsubr
          endchar
        </CharString>
        <CharString name="Sacute">
          -107 -11 49 539 50 hstem
          49 78 223 81 vstem
          154 650 -98 callgsubr
          -105 -194 -101 callsubr
          endchar
        </CharString>
        <CharString name="Sacute.loclPLK">
          17 callgsubr
          220 -27 callsubr
          -175 -196 -101 callsubr
          endchar
        </CharString>
        <CharString name="Scaron">
          17 callgsubr
          121 800 -86 callgsubr
          -76 -344 -101 callsubr
          endchar
        </CharString>
        <CharString name="Scedilla">
          -107 41 callsubr
          35 49 539 50 hstemhm
          49 78 133 65 25 81 hintmask 11111010
          431 163 rmoveto
          86 -35 45 -69 26 vhcurveto
          -108 44 rlineto
          -60 24 -32 28 58 vvcurveto
          67 49 36 78 25 43 -4 -6 19 vhcurveto
          22 -97 rlineto
          37 hlineto
          10 130 rlineto
          17 -52 -56 10 -54 hhcurveto
          -128 -71 -64 -107 -87 42 -45 60 -23 hvcurveto
          111 -43 rlineto
          66 -26 22 -38 -53 vvcurveto
          -61 -51 -42 -83 -44 -41 8 6 -23 vhcurveto
          -19 86 rlineto
          -37 hlineto
          -14 -118 rlineto
          hintmask 11111110
          48 -20 63 -10 50 -1 -19 -56 rcurveline
          -77 callsubr
          11 35 rlineto
          hintmask 11111010
          134 6 68 66 102 vvcurveto
          endchar
        </CharString>
        <CharString name="Scircumflex">
          17 callgsubr
          342 651 -100 callgsubr
          -297 -195 -101 callsubr
          endchar
        </CharString>
        <CharString name="Scommaaccent">
          -107 -11 49 539 50 hstem
          49 78 223 81 vstem
          49 -41 callsubr
          165 -677 rmoveto
          65 179 -13 14 -70 -15 -15 15 callsubr
        </CharString>
        <CharString name="T">
          27 callgsubr
          10 611 -56 callgsubr
          endchar
        </CharString>
        <CharString name="Tbar">
          -52 0 33 253 46 227 52 hstem
          14 60 142 83 141 61 vstem
          440 559 rmoveto
          19 -88 rlineto
          39 hlineto
          6 140 rlineto
          -494 hlineto
          8 -140 rlineto
          36 hlineto
          20 88 rlineto
          142 -227 -174 -46 174 -233 hlineto
          -5 callsubr
          -106 20 rlineto
          233 178 46 -178 227 141 vlineto
          endchar
        </CharString>
        <CharString name="Tcaron">
          27 callgsubr
          140 800 -86 callgsubr
          -130 -189 -56 callgsubr
          endchar
        </CharString>
        <CharString name="Thorn">
          -65 0 33 94 40 280 42 89 106 callsubr
          178 91 vstem
          279 127 rmoveto
          110 91 64 128 114 -91 56 -137 hvcurveto
          -41 69 hlineto
          35 callsubr
          81 vlineto
          -5 23 23 -2 22 hhcurveto
          -18 320 rmoveto
          72 56 -40 -96 -108 -62 -36 -71 -15 -15 1 3 -15 hvcurveto
          269 vlineto
          4 17 17 3 16 hhcurveto
          endchar
        </CharString>
        <CharString name="U">
          -30 callgsubr
          vstem
          556 236 -104 callgsubr
          endchar
        </CharString>
        <CharString name="Uacute">
          -30 callgsubr
          vstem
          247 650 -98 callgsubr
          309 -414 -104 callgsubr
          endchar
        </CharString>
        <CharString name="Ubreve">
          -36 callgsubr
          54 54 hstemhm
          100 83 26 80 callgsubr
          56 57 hintmask 00000000
          hintmask 11111110
          327 665 -92 callgsubr
          229 -429 rmoveto
          -59 callsubr
          -33 vlineto
          86 -19 rlineto
          -322 vlineto
          -115 -43 -81 -123 vhcurveto
          hintmask 11110110
          -129 -21 103 120 hvcurveto
          294 -33 callsubr
          -264 -33 vlineto
          91 -20 rlineto
          -294 vlineto
          -145 30 -129 199 vhcurveto
          hintmask 11111110
          -42 callgsubr
          hvcurveto
          endchar
        </CharString>
        <CharString name="Ucircumflex">
          -30 callgsubr
          vstem
          456 651 -100 callgsubr
          100 -415 -104 callgsubr
          endchar
        </CharString>
        <CharString name="Udieresis">
          -36 callgsubr
          56 113 hstemhm
          100 83 5 -11 callgsubr
          2 57 hintmask 00000000
          hintmask 11101100
          302 722 -29 callsubr
          59 -486 -104 callgsubr
          endchar
        </CharString>
        <CharString name="Ugrave">
          -30 callgsubr
          vstem
          392 650 -80 callgsubr
          164 -414 -104 callgsubr
          endchar
        </CharString>
        <CharString name="Uhorn">
          70 callsubr
          737 675 -95 callsubr
          endchar
        </CharString>
        <CharString name="Uhungarumlaut">
          -30 callgsubr
          vstem
          230 -19 callsubr
          164 -416 -104 callgsubr
          endchar
        </CharString>
        <CharString name="Umacron">
          -36 callgsubr
          86 52 hstem
          100 83 48 217 51 57 vstem
          231 749 -53 callsubr
          325 -513 -104 callgsubr
          endchar
        </CharString>
        <CharString name="Uogonek">
          86 -236 44 182 103 callsubr
          83 68 165 57 vstem
          413 611 rmoveto
          -102 callgsubr
          vhcurveto
          10 hlineto
          -50 -38 -23 -52 -51 -17 callsubr
          42 12 70 63 21 hvcurveto
          126 37 21 124 75 vvcurveto
          -59 callsubr
          vlineto
          endchar
        </CharString>
        <CharString name="Uring">
          -36 callgsubr
          22 35 120 34 hstemhm
          100 83 61 50 102 49 54 57 hintmask 00000000
          hintmask 11111111
          445 728 -69 callgsubr
          211 -552 rmoveto
          hintmask 11011111
          -59 callsubr
          -102 callgsubr
          vhcurveto
          hintmask 11111111
          -42 callgsubr
          hvcurveto
          endchar
        </CharString>
        <CharString name="Utilde">
          -36 callgsubr
          88 54 callsubr
          51 callgsubr
          hintmask 11101100
          490 57 callgsubr
          hintmask 11011100
          -100 callsubr
          hintmask 11101100
          -82 callsubr
          66 -556 -104 callgsubr
          endchar
        </CharString>
        <CharString name="V">
          35 578 33 hstemhm
          5 217 169 204 106 callgsubr
          391 578 rmoveto
          72 -20 -139 -432 -6 -25 -6 25 -149 432 59 -15 callsubr
          -217 -33 vlineto
          72 -20 196 -568 63 12 187 556 72 -15 callsubr
          -204 -33 vlineto
          endchar
        </CharString>
        <CharString name="W">
          183 578 33 hstemhm
          -24 219 374 207 106 callgsubr
          569 611 2 callgsubr
          -66 callsubr
          -207 vlineto
          endchar
        </CharString>
        <CharString name="Wacute">
          30 callgsubr
          537 753 -48 callsubr
          32 -142 2 callgsubr
          rlineto
          hintmask 11000000
          -66 callsubr
          vlineto
          hintmask 10100000
          -207 hlineto
          endchar
        </CharString>
        <CharString name="Wcircumflex">
          30 callgsubr
          366 733 rmoveto
          116 -82 18 18 -102 131 rlineto
          -60 hlineto
          -100 -131 17 -18 111 82 rlineto
          203 -122 2 callgsubr
          rlineto
          hintmask 11000000
          -66 callsubr
          vlineto
          hintmask 10100000
          -207 hlineto
          endchar
        </CharString>
        <CharString name="Wdieresis">
          183 578 33 56 113 hstemhm
          -24 219 19 -11 callgsubr
          hintmask 11011000
          271 667 rmoveto
          30 27 25 30 32 -27 26 -30 -30 -27 -26 -32 -30 27 -25 30 hvcurveto
          194 hmoveto
          30 28 25 30 32 -28 26 -30 -30 -27 -26 -32 -30 27 -25 30 hvcurveto
          104 -56 2 callgsubr
          rlineto
          hintmask 11111000
          -66 callsubr
          vlineto
          hintmask 11011000
          -207 hlineto
          endchar
        </CharString>
        <CharString name="Wgrave">
          30 callgsubr
          434 669 -11 callsubr
          135 -58 2 callgsubr
          rlineto
          hintmask 11000000
          -66 callsubr
          vlineto
          hintmask 10100000
          -207 hlineto
          endchar
        </CharString>
        <CharString name="X">
          0 -36 callsubr
          hstemhm
          1 207 147 206 hintmask 00000000
          hintmask 11110000
          208 33 rmoveto
          -68 20 128 201 131 -202 -59 -19 rlineto
          -33 226 33 vlineto
          -68 19 -167 259 161 247 69 -15 callsubr
          -206 -33 vlineto
          67 -20 -124 -195 -124 195 57 -15 callsubr
          -224 -33 vlineto
          67 -20 161 -251 -165 -254 -69 -20 rlineto
          -33 207 33 vlineto
          endchar
        </CharString>
        <CharString name="Y">
          2 19 callgsubr
          247 82 34 206 vstem
          363 578 rmoveto
          -83 callsubr
          -33 vlineto
          endchar
        </CharString>
        <CharString name="Y.loclGUA">
          4 callgsubr
          hstem
          91 82 304 77 vstem
          193 -83 -96 callgsubr
        </CharString>
        <CharString name="Yacute">
          2 19 callgsubr
          239 82 34 206 vstem
          204 650 -98 callgsubr
          151 -72 rmoveto
          -83 callsubr
          -33 vlineto
          endchar
        </CharString>
        <CharString name="Yacute.loclGUA">
          4 callgsubr
          hstem
          100 82 304 77 vstem
          262 650 rmoveto
          215 103 rlineto
          18 vlineto
          -77 28 -153 -130 15 -19 rlineto
          -60 -733 -96 callgsubr
        </CharString>
        <CharString name="Ycircumflex">
          2 19 callgsubr
          239 82 34 206 vstem
          407 651 -100 callgsubr
          -52 -73 rmoveto
          -83 callsubr
          -33 vlineto
          endchar
        </CharString>
        <CharString name="Ycircumflex.loclGUA">
          4 callgsubr
          hstem
          100 82 304 77 vstem
          457 651 -100 callgsubr
          -255 -734 -96 callgsubr
        </CharString>
        <CharString name="Ydieresis">
          94 callsubr
          57 113 hstemhm
          138 114 -13 82 11 115 -91 206 hintmask 00000000
          hintmask 11110100
          252 724 rmoveto
          31 -28 26 -28 -32 -26 -26 -31 -31 26 -25 32 28 28 43 callsubr
          hintmask 11001010
          -91 -146 -9 callsubr
        </CharString>
        <CharString name="Ydieresis.loclGUA">
          4 callgsubr
          63 113 hstemhm
          100 82 7 -11 callgsubr
          -12 77 hintmask 00000000
          hintmask 11110110
          303 730 rmoveto
          31 -27 26 -29 -31 -27 -26 -31 -31 27 -25 31 29 27 43 callsubr
          -296 -813 rmoveto
          -23 80 rlineto
          -32 hlineto
          -18 -114 rlineto
          -34 65 57 -16 79 hhcurveto
          hintmask 11101001
          153 80 98 126 hvcurveto
          501 vlineto
          89 -15 callsubr
          -256 -33 vlineto
          90 -20 rlineto
          -364 vlineto
          -43 -19 -44 -51 -99 hhcurveto
          -121 -21 107 123 hvcurveto
          228 -33 callsubr
          -263 -33 vlineto
          91 -20 rlineto
          -228 vlineto
          -146 30 -130 189 75 53 24 33 39 vhcurveto
          -53 vlineto
          -127 -67 -47 -89 vhcurveto
          hintmask 11110110
          -41 -51 12 21 -36 hvcurveto
          endchar
        </CharString>
        <CharString name="Ygrave">
          2 19 callgsubr
          239 82 35 206 vstem
          393 650 rmoveto
          15 19 -152 130 -77 -28 rlineto
          -18 vlineto
          214 -103 rlineto
          -37 -72 -9 callsubr
        </CharString>
        <CharString name="Ygrave.loclGUA">
          4 callgsubr
          hstem
          100 82 304 77 vstem
          424 650 rmoveto
          16 19 -67 callsubr
          214 -103 rlineto
          -222 -733 -96 callgsubr
        </CharString>
        <CharString name="Z">
          100 callgsubr
          474 147 -83 callgsubr
          endchar
        </CharString>
        <CharString name="Zacute">
          100 callgsubr
          180 650 -98 callgsubr
          294 -503 -83 callgsubr
          endchar
        </CharString>
        <CharString name="Zacute.loclPLK">
          100 callgsubr
          250 -27 callsubr
          224 -505 -83 callgsubr
          endchar
        </CharString>
        <CharString name="Zcaron">
          75 callsubr
          hstem
          47 431 vstem
          165 800 -86 callgsubr
          313 -653 -83 callgsubr
          endchar
        </CharString>
        <CharString name="Zdotaccent">
          75 callsubr
          57 117 hstem
          211 120 vstem
          331 -38 callsubr
          143 -578 -83 callgsubr
          endchar
        </CharString>
        <CharString name="a">
          -7 callgsubr
          231 446 rmoveto
          -107 callgsubr
          endchar
        </CharString>
        <CharString name="aacute">
          -7 callgsubr
          175 558 -98 callgsubr
          56 -112 rmoveto
          -107 callgsubr
          endchar
        </CharString>
        <CharString name="abreve">
          -33 callgsubr
          78 54 hstemhm
          40 87 -15 80 callgsubr
          -28 83 hintmask 11101010
          230 578 rmoveto
          hintmask 11101100
          -94 callgsubr
          hintmask 11101010
          -59 25 -55 93 vhcurveto
          1 -132 -12 callgsubr
          hintmask 11110010
          -111 -20 -16 -71 -48 vvcurveto
          -61 37 -62 70 65 57 25 37 51 vhcurveto
          -37 7 27 -18 32 hhcurveto
          27 39 4 12 39 hvcurveto
          28 vlineto
          -90 18 rlineto
          -97 callgsubr
          hintmask 11101010
          -46 callsubr
          hintmask 11110010
          -59 callgsubr
        </CharString>
        <CharString name="acircumflex">
          -7 callgsubr
          336 552 -90 callsubr
          -105 -106 rmoveto
          -107 callgsubr
          endchar
        </CharString>
        <CharString name="acute">
          -310 558 72 callsubr
          28 558 -98 callgsubr
          endchar
        </CharString>
        <CharString name="acute.case">
          -310 650 72 callsubr
          28 650 -98 callgsubr
          endchar
        </CharString>
        <CharString name="acute.loclPLK">
          -310 544 170 hstem
          74 145 vstem
          93 -26 callgsubr
          endchar
        </CharString>
        <CharString name="acute.loclPLK.case">
          -310 652 148 hstem
          73 130 vstem
          95 -27 callsubr
          endchar
        </CharString>
        <CharString name="acutecomb">
          92 callgsubr
          -227 650 -98 callgsubr
          endchar
        </CharString>
        <CharString name="adieresis">
          -33 callgsubr
          80 113 hstemhm
          40 87 -50 -11 callgsubr
          -68 83 hintmask 11101010
          191 635 -88 callsubr
          hintmask 11101100
          195 hmoveto
          32 -28 -93 callgsubr
          28 25 30 vhcurveto
          hintmask 11110010
          -155 -189 rmoveto
          -107 callgsubr
          endchar
        </CharString>
        <CharString name="ae">
          47 callgsubr
          481 500 -66 callgsubr
        </CharString>
        <CharString name="aeacute">
          47 callgsubr
          478 661 -48 callsubr
          3 -161 -66 callgsubr
        </CharString>
        <CharString name="agrave">
          -7 callgsubr
          321 558 -80 callgsubr
          -90 -112 rmoveto
          -107 callgsubr
          endchar
        </CharString>
        <CharString name="amacron">
          -33 callgsubr
          109 52 hstemhm
          40 87 -10 217 -16 83 hintmask 00000000
          hintmask 11101000
          117 661 -53 callsubr
          hintmask 11110100
          114 -215 rmoveto
          -107 callgsubr
          endchar
        </CharString>
        <CharString name="ampersand">
          -68 callsubr
        </CharString>
        <CharString name="ampersand.001">
          -68 callsubr
        </CharString>
        <CharString name="aogonek">
          -56 -236 44 181 62 395 54 hstemhm
          40 87 175 68 -52 83 hintmask 11110100
          479 9 rmoveto
          12 3 rlineto
          28 vlineto
          -90 18 rlineto
          -97 callgsubr
          -46 callsubr
          -76 callgsubr
          -111 -20 -16 -71 -48 vvcurveto
          -61 37 -62 70 65 57 25 37 51 vhcurveto
          -37 7 27 -18 32 hhcurveto
          11 hlineto
          hintmask 11111000
          -58 -40 -37 -56 -51 -17 callsubr
          hvcurveto
          hintmask 11110100
          49 26 66 83 27 vhcurveto
          -161 79 rmoveto
          -17 -32 -48 -20 -38 hhcurveto
          -42 -31 19 57 40 20 39 67 11 hvcurveto
          104 17 rlineto
          -146 vlineto
          endchar
        </CharString>
        <CharString name="approxequal">
          -56 177 60 -7 60 34 62 -7 59 hstemhm
          53 401 hintmask 10011000
          162 379 rmoveto
          hintmask 10101000
          54 68 -55 53 hhcurveto
          43 39 33 90 callgsubr
          hintmask 10011000
          -59 -56 52 -60 hhcurveto
          -42 -38 -28 -67 -33 hvcurveto
          30 -20 rlineto
          40 26 23 16 30 hhcurveto
          hintmask 01011000
          -149 vmoveto
          hintmask 10011000
          54 68 -53 53 hhcurveto
          43 39 31 64 35 hvcurveto
          -32 19 rlineto
          -39 -25 -19 -15 -37 hhcurveto
          hintmask 01011000
          -59 -56 53 -60 hhcurveto
          -42 -38 -28 -66 -33 hvcurveto
          30 -22 rlineto
          40 26 23 16 30 hhcurveto
          endchar
        </CharString>
        <CharString name="aring">
          -33 callgsubr
          29 35 131 35 hstemhm
          40 87 0 54 99 54 -16 83 hintmask 00000000
          hintmask 10110110
          334 629 -24 callgsubr
          hintmask 11111001
          -249 vmoveto
          -107 callgsubr
          endchar
        </CharString>
        <CharString name="aringacute">
          -33 callgsubr
          13 35 120 34 hstemhm
          40 87 21 50 102 49 -31 83 hintmask 10110101
          205 711 -98 callgsubr
          hintmask 10110110
          144 -103 -69 callgsubr
          hintmask 11111101
          -18 -222 rmoveto
          -107 callgsubr
          endchar
        </CharString>
        <CharString name="arrowdown">
          -9 29 462 hstem
          244.5 79 vstem
          67 319 rmoveto
          211 -290 rlineto
          13 hlineto
          198 290 -27 28 -145 -173 13 317 rlineto
          -92 hlineto
          13 -317 -157 173 -27 -28 rlineto
          endchar
        </CharString>
        <CharString name="arrowleft">
          67 callgsubr
          192 299 rmoveto
          172 145 -27 27 -290 -198 rlineto
          -13 vlineto
          290 -211 27 28 -172 156 317 -13 rlineto
          93 vlineto
          -317 -14 rlineto
          endchar
        </CharString>
        <CharString name="arrowright">
          67 callgsubr
          219 49 rmoveto
          290 211 rlineto
          13 vlineto
          -290 198 -28 -27 172 -145 -316 14 rlineto
          -93 vlineto
          316 13 -172 -156 28 -28 rlineto
          endchar
        </CharString>
        <CharString name="arrowup">
          -9 29 462 hstem
          231.5 79.5 vstem
          489 201 rmoveto
          -211 290 rlineto
          -14 hlineto
          -197 -290 26 -28 146 173 -15 -317 rlineto
          94 hlineto
          -14 317 157 -173 28 28 rlineto
          endchar
        </CharString>
        <CharString name="asciicircum">
          -56 252 358 hstem
          50 410 vstem
          50 252 rmoveto
          69 hlineto
          137 280 135 -280 rlineto
          69 hlineto
          -176 358 rlineto
          -57 hlineto
          -177 -358 rlineto
          endchar
        </CharString>
        <CharString name="asciitilde">
          -56 230 60 -7 59 hstemhm
          53 401 hintmask 00000000
          hintmask 01100000
          162 283 rmoveto
          hintmask 10100000
          54 68 -53 53 hhcurveto
          43 39 31 90 callgsubr
          hintmask 01100000
          -59 -56 52 -60 hhcurveto
          -42 -38 -28 -66 -33 hvcurveto
          30 -20 rlineto
          40 26 23 15 30 hhcurveto
          endchar
        </CharString>
        <CharString name="asterisk">
          -227 431 307 hstem
          8 321 vstem
          206 572 rmoveto
          123 19 -23 76 -112 -57 -5 3 18 125 rlineto
          -77 hlineto
          19 -125 -6 -1 -112 55 -23 -76 122 -19 2 -5 -88 -90 64 -46 59 110 rlineto
          4 hlineto
          59 -110 61 46 -87 90 2 5 rlineto
          endchar
        </CharString>
        <CharString name="at">
          159 -83 45 90 49 -45 40 283 43 94 42 hstemhm
          34 76 119 69 129 65 124 74 hintmask 1011111110000000
          110 238 rmoveto
          153 69 125 195 170 72 -107 -123 -110 -22 -80 -75 -13 -14 11 12 vhcurveto
          223 vlineto
          60 -42 20 -69 -49 -50 -15 -21 -39 vhcurveto
          12 -28 rlineto
          10 29 39 11 44 hhcurveto
          46 14 -21 -37 hvcurveto
          -58 vlineto
          -110 -25 rlineto
          hintmask 1101111110000000
          -74 -17 -14 -44 -35 vvcurveto
          -45 28 -45 60 34 40 18 27 37 vhcurveto
          hintmask 1011111110000000
          -28 6 36 -13 29 hhcurveto
          122 69 96 120 136 -63 150 -264 -239 -90 -158 -156 -172 87 -155 217 96 74 20 38 80 hvcurveto
          -11 31 rlineto
          -28 -81 -62 -16 -78 hhcurveto
          -146 -100 77 199 hvcurveto
          244 -25 rmoveto
          73 16 rlineto
          hintmask 1101111110000000
          -105 vlineto
          -11 -18 -31 -12 -26 hhcurveto
          -39 -15 13 38 hvcurveto
          hintmask 1011111110000000
          31 11 20 45 10 vhcurveto
          endchar
        </CharString>
        <CharString name="atilde">
          -33 callgsubr
          66 callgsubr
          60 callgsubr
          hintmask 11100100
          381 675 -31 callgsubr
          -150 -229 -12 callgsubr
          hintmask 11101100
          -111 -20 -16 -71 -48 vvcurveto
          -61 37 -62 70 65 57 25 37 51 vhcurveto
          -37 7 27 -18 32 hhcurveto
          27 39 4 12 39 hvcurveto
          28 vlineto
          -90 18 rlineto
          -97 callgsubr
          hintmask 11100100
          -46 callsubr
          hintmask 11101100
          -59 callgsubr
        </CharString>
        <CharString name="b">
          -10 -10 44 418 48 hstem
          83 84 255 92 vstem
          167 474 rmoveto
          253 -25 vlineto
          -147 -38 rlineto
          -23 vlineto
          88 -10 rlineto
          -638 vlineto
          -16 45 93 -12 53 hhcurveto
          193 47 132 127 174 -89 77 -148 -34 -45 -12 -14 -31 hvcurveto
          -422 vmoveto
          377 vlineto
          13 30 30 10 43 hhcurveto
          121 31 -74 -131 -140 -34 -73 -122 -43 -37 9 9 -19 hvcurveto
          endchar
        </CharString>
        <CharString name="backslash">
          -223 -138 834 hstem
          8 328 vstem
          64 696 rmoveto
          -56 hlineto
          270 -834 rlineto
          58 hlineto
          -272 834 rlineto
          endchar
        </CharString>
        <CharString name="bar">
          64 callsubr
          -834 73 834 hlineto
          endchar
        </CharString>
        <CharString name="braceleft">
          -287 -192 903 hstem
          113 76.5 vstem
          102 674 rmoveto
          22 -372 -71 -35 rlineto
          -15 vlineto
          71 -35 -22 -374 157 -35 11 26 -91 37 21 357 -101 31 101 32 -21 356 91 37 -11 27 -157 -37 rlineto
          endchar
        </CharString>
        <CharString name="braceright">
          -287 -192 903 hstem
          88.5 75 vstem
          174 -157 rmoveto
          -21 374 71 35 rlineto
          15 vlineto
          -71 35 21 372 -155 37 -11 -27 91 -37 -21 -356 101 -32 -101 -31 21 -357 -91 -37 11 -26 155 35 rlineto
          endchar
        </CharString>
        <CharString name="bracketleft">
          66 callsubr
          68 72 vstem
          257 -166 rmoveto
          34 vlineto
          -117 8 rlineto
          780 vlineto
          117 7 rlineto
          33 -189 -862 189 vlineto
          endchar
        </CharString>
        <CharString name="bracketright">
          66 callsubr
          138 72 vstem
          21 696 rmoveto
          -33 vlineto
          117 -7 rlineto
          -780 vlineto
          -117 -8 rlineto
          -34 189 862 -189 vlineto
          endchar
        </CharString>
        <CharString name="breve">
          -310 578 54 hstem
          10 80 callgsubr
          vstem
          128 578 -92 callgsubr
          endchar
        </CharString>
        <CharString name="breve.case">
          -310 665 54 hstem
          10 80 callgsubr
          vstem
          128 665 -92 callgsubr
          endchar
        </CharString>
        <CharString name="brokenbar">
          64 callsubr
          -323 73 323 hlineto
          -512 vmoveto
          -73 -322 73 322 hlineto
          endchar
        </CharString>
        <CharString name="bullet">
          -99 202 290 hstem
          88 290 vstem
          378 347 rmoveto
          81 -66 64 -79 -81 -64 -64 -81 -79 64 -66 81 79 66 66 79 vhcurveto
          endchar
        </CharString>
        <CharString name="c">
          45 callsubr
          hstem
          41 92 vstem
          257 -10 -85 callsubr
        </CharString>
        <CharString name="cacute">
          45 callsubr
          hstem
          39 92 vstem
          159 558 -98 callgsubr
          96 -568 -85 callsubr
        </CharString>
        <CharString name="cacute.loclPLK">
          45 callsubr
          hstem
          41 92 vstem
          251 -26 callgsubr
          6 -554 -85 callsubr
        </CharString>
        <CharString name="caron">
          -310 558 157 hstem
          -2 258 vstem
          20 -76 callsubr
          endchar
        </CharString>
        <CharString name="caron.case">
          -310 651 149 hstem
          -4 262 vstem
          13 800 -86 callgsubr
          endchar
        </CharString>
        <CharString name="ccaron">
          45 callsubr
          hstem
          39 92 vstem
          146 -76 callsubr
          109 -725 -85 callsubr
        </CharString>
        <CharString name="ccedilla">
          -125 41 callsubr
          36 54 405 51 hstem
          39 92 154 65 vstem
          243 -46 rmoveto
          12 36 rlineto
          62 45 16 28 55 hvcurveto
          -6 32 rlineto
          -14 -41 -59 -8 -51 hhcurveto
          -104 -25 83 119 122 25 81 100 29 31 -5 -8 25 hvcurveto
          24 -90 rlineto
          31 hlineto
          19 123 rlineto
          21 -54 -44 10 -62 hhcurveto
          -156 -60 -114 -143 -130 53 -107 133 -14 hvcurveto
          -20 -59 -77 callsubr
          endchar
        </CharString>
        <CharString name="ccircumflex">
          45 callsubr
          hstem
          41 92 vstem
          367 552 -90 callsubr
          -110 -562 -85 callsubr
        </CharString>
        <CharString name="cdotaccent">
          45 callsubr
          80 117 hstem
          41 92 67 120 vstem
          320 -65 callsubr
          -63 -647 -85 callsubr
        </CharString>
        <CharString name="cedilla">
          -310 41 callsubr
          hstem
          156 65 vstem
          114 -46 rmoveto
          17 53 rlineto
          -30 hlineto
          -25 -74 -77 callsubr
          endchar
        </CharString>
        <CharString name="cent">
          -63 30 53 440 50 hstemhm
          60 88 105 48 -32 48 hintmask 11110000
          253 32 rmoveto
          -122 48 120 vlineto
          55 1 58 19 46 27 -7 32 rcurveline
          -15 -37 -59 -11 -60 hhcurveto
          -120 -29 96 130 132 42 82 100 31 38 -7 -8 25 hvcurveto
          24 -95 rlineto
          40 hlineto
          10 127 rlineto
          hintmask 11101000
          -37 19 -58 12 -46 2 rrcurveto
          120 -48 -120 vlineto
          -120 -9 -89 -78 -182 vvcurveto
          hintmask 11110000
          -157 64 -98 129 -17 vhcurveto
          endchar
        </CharString>
        <CharString name="circumflex">
          -310 552 157 hstem
          -2 258 vstem
          234 552 -90 callsubr
          endchar
        </CharString>
        <CharString name="circumflex.case">
          -310 651 149 hstem
          -4 262 vstem
          240 651 -100 callgsubr
          endchar
        </CharString>
        <CharString name="colon">
          -379 -9 118 233 118 hstem
          32 120 vstem
          152 400 rmoveto
          -13 callsubr
          -351 vmoveto
          -13 callsubr
          endchar
        </CharString>
        <CharString name="comma">
          -401 -120 228 hstem
          40 107 vstem
          63 -120 rmoveto
          84 211 -16 17 -75 -18 -16 116 callgsubr
        </CharString>
        <CharString name="commaaccentInverted">
          -362 547 193 hstem
          48 97 vstem
          112 68 callsubr
          endchar
        </CharString>
        <CharString name="copyright">
          -71 209 32 55 28 261 29 49 33 hstem
          4 33 73 60 131 39 118 32 12 callgsubr
          33 hmoveto
          119 92 92 118 119 92 -92 -119 -119 -92 -92 -119 -118 -92 92 119 vhcurveto
          305 -137 rmoveto
          -4 56 rlineto
          -24 hlineto
          -13 -41 rlineto
          -4 -18 -12 -2 -15 hhcurveto
          -75 -11 66 65 78 16 52 72 13 14 -2 -4 16 hvcurveto
          13 -46 rlineto
          24 hlineto
          4 66 rlineto
          9 -31 -29 6 -31 hhcurveto
          -102 -39 -67 -92 -102 35 -57 106 37 25 5 14 29 hvcurveto
          endchar
        </CharString>
        <CharString name="currency">
          -18 47 62 280 63 hstem
          73 64 280 62 vstem
          57 79 rmoveto
          47 -50 55 54 rlineto
          -23 33 40 -13 44 hhcurveto
          43 41 12 24 33 hvcurveto
          54 -53 47 50 -53 51 rlineto
          25 33 13 42 43 vvcurveto
          43 -15 40 -23 34 vhcurveto
          53 53 -48 48 -53 -53 rlineto
          24 -33 -41 14 -43 hhcurveto
          -44 -40 -14 -24 -33 hvcurveto
          -52 54 -50 -49 53 -53 rlineto
          -23 -34 -14 -40 -43 vvcurveto
          -43 14 -42 23 -33 vhcurveto
          -53 -52 rlineto
          80 169 rmoveto
          78 62 63 77 77 64 -63 -78 -77 -64 -62 -77 -77 -62 62 77 vhcurveto
          endchar
        </CharString>
        <CharString name="d">
          8 -10 103 callgsubr
          253 83 vstem
          -77 callgsubr
          -131 2 -1 callsubr
        </CharString>
        <CharString name="dagger">
          -131 0 611 hstemhm
          66 303 -188 71 hintmask 10100000
          263 hmoveto
          -22 433 rlineto
          hintmask 11000000
          37 callsubr
          hintmask 10100000
          127 20 -24 -433 rlineto
          94 hlineto
          endchar
        </CharString>
        <CharString name="daggerdbl">
          -131 0 611 hstem
          66 303 vstem
          369 197 rmoveto
          -128 -19 25 128 -25 127 37 callsubr
          127 20 -24 -127 24 -128 -127 19 rlineto
          -88 vlineto
          126 19 -19 -128 rlineto
          86 hlineto
          -18 128 128 -19 rlineto
          88 vlineto
          endchar
        </CharString>
        <CharString name="dcaron">
          31 -10 103 callgsubr
          253 83 vstem
          -77 callgsubr
          168 467 rmoveto
          -29 213 rlineto
          28 hlineto
          55 -18 -31 -195 rlineto
          -23 hlineto
          -299 -465 -1 callsubr
        </CharString>
        <CharString name="dcroat">
          11 -10 58 405 47 84 46 hstem
          41 90 255 83 vstem
          469 58 rmoveto
          526 67 46 -67 97 -12 callsubr
          -15 rlineto
          -22 vlineto
          90 -21 rlineto
          -39 -143 -46 143 -110 vlineto
          2 -63 24 -54 -145 -83 -98 -159 -133 59 -120 119 70 50 23 33 50 vhcurveto
          -32 5 32 -18 26 hhcurveto
          28 39 4 12 39 hvcurveto
          28 vlineto
          -89 18 rlineto
          -83 25 rmoveto
          -14 -25 -50 -21 -53 hhcurveto
          -89 -38 81 117 127 47 80 96 36 46 -11 -15 30 hvcurveto
          -344 vlineto
          endchar
        </CharString>
        <CharString name="degree">
          -124 400 34 246 34 hstem
          63 49 216 50 vstem
          378 557 rmoveto
          86 -71 71 -87 -87 -70 -71 -86 -88 70 -69 87 87 71 69 88 vhcurveto
          -158 123 rmoveto
          69 39 -56 -67 -68 -39 -55 -69 -68 -40 55 68 67 40 56 68 hvcurveto
          endchar
        </CharString>
        <CharString name="dieresis">
          -310 580 113 hstem
          -27 -11 callgsubr
          vstem
          87 635 -103 callgsubr
          endchar
        </CharString>
        <CharString name="dieresis.case">
          -310 667 113 hstem
          -27 -11 callgsubr
          vstem
          87 722 -103 callgsubr
          endchar
        </CharString>
        <CharString name="divide">
          -56 117 117 48 54 46 118 hstem
          194 120 vstem
          314 440 rmoveto
          -13 callsubr
          -251 -158 rmoveto
          384 54 -384 -54 hlineto
          251 -108 rmoveto
          34 -28 26 -32 -32 -28 -26 -34 -33 28 -24 32 32 28 24 33 vhcurveto
          endchar
        </CharString>
        <CharString name="dollar">
          -63 2 47 515 48 hstemhm
          72 76 88 43 -28 43 80 79 hintmask 11110100
          232 2 rmoveto
          4 -118 43 119 hlineto
          115 14 59 60 92 vvcurveto
          82 -35 44 -69 26 vhcurveto
          -108 41 rlineto
          -61 23 -32 26 57 vvcurveto
          62 49 34 80 24 45 -3 -5 18 vhcurveto
          23 -93 rlineto
          35 hlineto
          10 124 rlineto
          hintmask 11101100
          -44 13 -47 10 -47 2 rrcurveto
          101 -43 -101 vlineto
          -115 -5 -64 -60 -98 vvcurveto
          -90 41 -37 61 -22 vhcurveto
          112 -41 rlineto
          61 -22 27 -39 -51 vvcurveto
          -57 -51 -41 -84 -45 -41 8 6 -23 vhcurveto
          -19 83 rlineto
          -37 hlineto
          -13 -114 rlineto
          hintmask 11110100
          -20 52 68 -10 51 hhcurveto
          endchar
        </CharString>
        <CharString name="dotaccent">
          -310 580 117 hstem
          67 120 vstem
          187 -65 callsubr
          endchar
        </CharString>
        <CharString name="dotaccent.case">
          -310 668 117 hstem
          67 120 vstem
          187 -38 callsubr
          endchar
        </CharString>
        <CharString name="dotbelowcomb">
          -565 -21 callgsubr
          hstem
          -188 120 vstem
          -68 -101 -104 callsubr
          endchar
        </CharString>
        <CharString name="dotlessi">
          18 callgsubr
          291 32 -90 callgsubr
          endchar
        </CharString>
        <CharString name="e">
          -51 callgsubr
          21 callsubr
          263 -11 -106 callgsubr
          endchar
        </CharString>
        <CharString name="eacute">
          -51 callgsubr
          21 callsubr
          170 558 -98 callgsubr
          93 -569 -106 callgsubr
          endchar
        </CharString>
        <CharString name="ebreve">
          -51 callgsubr
          78 54 hstemhm
          38 92 -11 80 callgsubr
          -3 90 hintmask 00000000
          hintmask 11110110
          237 578 -92 callgsubr
          hintmask 11111001
          26 -589 -106 callgsubr
          endchar
        </CharString>
        <CharString name="ecaron">
          -51 callgsubr
          21 callsubr
          144 -76 callsubr
          119 -726 -106 callgsubr
          endchar
        </CharString>
        <CharString name="ecircumflex">
          -51 callgsubr
          21 callsubr
          359 552 -90 callsubr
          -96 -563 -106 callgsubr
          endchar
        </CharString>
        <CharString name="edieresis">
          -51 callgsubr
          80 113 hstemhm
          38 92 -33 -11 callgsubr
          -56 90 hintmask 00000000
          hintmask 11110110
          211 635 -103 callgsubr
          hintmask 11101001
          -143 -646 -106 callgsubr
          endchar
        </CharString>
        <CharString name="edotaccent">
          -51 callgsubr
          80 117 hstem
          38 92 62 120 38 90 vstem
          312 -65 callsubr
          -49 -648 -106 callgsubr
          endchar
        </CharString>
        <CharString name="egrave">
          -51 callgsubr
          21 callsubr
          330 558 -80 callgsubr
          -67 -569 -106 callgsubr
          endchar
        </CharString>
        <CharString name="eight">
          -58 callgsubr
        </CharString>
        <CharString name="eight.dnom">
          -9 39 370 39 hstemhm
          47 12 callsubr
          hintmask 11100100
          47 97 -22 callsubr
          hintmask 11011000
          -23 callgsubr
          hintmask 11100100
          40 callsubr
          hintmask 11011000
          -37 callsubr
          hintmask 11100100
          -61 callgsubr
        </CharString>
        <CharString name="eight.numr">
          163 39 370 39 hstemhm
          47 12 callsubr
          hintmask 11100100
          47 269 rmoveto
          -52 30 -54 109 102 53 53 73 67 -51 24 -54 26 vhcurveto
          hintmask 11011000
          80 34 14 43 35 vvcurveto
          51 -44 42 -89 -98 -42 -49 -59 -56 55 callgsubr
          43 34 19 40 43 22 -28 -37 -36 -21 -24 -42 -23 vhcurveto
          -46 24 62 callgsubr
          -47 vvcurveto
          -46 -36 -24 -46 -42 -31 18 57 43 25 32 30 19 vhcurveto
          endchar
        </CharString>
        <CharString name="eight.osf">
          -58 callgsubr
        </CharString>
        <CharString name="ellipsis">
          -9 -9 111 hstem
          37 111 74 111 75 111 vstem
          37 47 rmoveto
          -31 24 -25 30 31 26 25 31 31 -26 24 -31 -30 -24 -24 -31 vhcurveto
          185 hmoveto
          -31 25 -25 30 31 25 25 31 31 -25 24 -31 -30 -25 -24 -31 vhcurveto
          186 hmoveto
          -31 23 -25 31 30 27 25 31 31 -27 24 -30 -31 -23 -24 -31 vhcurveto
          endchar
        </CharString>
        <CharString name="emacron">
          -51 callgsubr
          109 52 hstemhm
          38 92 11 217 -8 90 hintmask 00000000
          hintmask 11111100
          141 661 -53 callsubr
          hintmask 11111010
          122 -672 -106 callgsubr
          endchar
        </CharString>
        <CharString name="emdash">
          265 212 49 hstem
          0 829 vstem
          829 212 rmoveto
          49 -829 -49 829 vlineto
          endchar
        </CharString>
        <CharString name="endash">
          151 212 49 hstem
          0 716 vstem
          716 212 rmoveto
          49 -716 -49 716 vlineto
          endchar
        </CharString>
        <CharString name="eng">
          29 76 callgsubr
          25 callgsubr
          382 500 rmoveto
          -66 -74 -23 -17 -39 hvcurveto
          40 -27 vlineto
          -145 -37 callgsubr
          -25 rlineto
          -28 254 28 vlineto
          -82 25 rlineto
          371 vlineto
          10 36 51 6 42 hhcurveto
          79 21 -13 -53 hvcurveto
          -394 vlineto
          -39 -16 -54 -53 vhcurveto
          -46 hlineto
          -5 -31 rlineto
          -17 33 32 -6 16 hhcurveto
          74 48 54 170 hvcurveto
          334 vlineto
          82 -62 27 -71 vhcurveto
          endchar
        </CharString>
        <CharString name="eogonek">
          -94 -236 44 181 53 220 40 149 49 hstem
          38 92 116 67 37 90 vstem
          438 262 rmoveto
          1 19 1 15 16 vvcurveto
          129 -60 59 -128 -139 -75 -90 -167 -167 76 -87 149 26 22 2 4 21 vhcurveto
          -65 -57 -21 -52 -37 vvcurveto
          -43 28 -42 66 64 29 50 0 vhcurveto
          -16 16 rlineto
          -16 -15 -18 -6 -17 hhcurveto
          -33 -21 21 38 52 37 70 55 30 hvcurveto
          9 4 9 5 10 5 -6 31 rcurveline
          -14 -50 -57 -8 -43 hhcurveto
          -93 -54 71 117 hvcurveto
          32 308 vlineto
          -180 189 rmoveto
          64 28 -39 -82 hvcurveto
          -23 vlineto
          -218 -10 rlineto
          111 5 35 43 86 hhcurveto
          endchar
        </CharString>
        <CharString name="equal">
          78 callsubr
          363 rmoveto
          54 -384 -54 384 vlineto
          -163 vmoveto
          52 -384 -52 384 vlineto
          endchar
        </CharString>
        <CharString name="estimated">
          121 -12 32 269 30 267 33 hstem
          28 115 401 115 vstem
          148 289 rmoveto
          511 14 hlineto
          176 -140 140 -176 -174 -141 -140 -176 -174 141 -141 174 103 108 53 78 49 vhcurveto
          -51 hlineto
          -65 -50 -76 -34 -82 hhcurveto
          -75 -69 30 58 -50 hvcurveto
          -3 4 -4 7 8 vvcurveto
          159 vlineto
          2 3 1 2 vhcurveto
          396 193 rmoveto
          -159 vlineto
          -2 -1 -2 -2 vhcurveto
          -393 hlineto
          -2 -3 2 2 hvcurveto
          156 vlineto
          8 4 7 4 6 vhcurveto
          57 50 61 29 82 hhcurveto
          89 54 -28 -56 50 hvcurveto
          4 -5 3 -7 -8 vvcurveto
          endchar
        </CharString>
        <CharString name="eth">
          0 callgsubr
          93 280 92 vstem
          373 627 rmoveto
          130 75 -23 38 -137 -79 -36 36 -43 33 -51 28 rlinecurve
          -21 -28 34 -30 34 -33 31 -36 rlinecurve
          -134 -77 22 -38 139 80 31 -42 26 -47 16 -53 rlinecurve
          30 -29 -43 16 -46 hhcurveto
          -169 -63 -116 -141 -140 66 -113 166 168 65 113 149 86 -25 158 -108 131 hvcurveto
          -97 -589 rmoveto
          -116 -26 103 106 104 23 102 113 120 24 -100 -106 -109 -21 -100 -117 hvcurveto
          endchar
        </CharString>
        <CharString name="exclam">
          -362 -9 111 hstem
          47 111 vstem
          124 187 rmoveto
          32 424 rlineto
          -104 hlineto
          31 -424 rlineto
          41 hlineto
          -77 -140 rmoveto
          -31 23 -25 31 31 26 25 31 31 -26 24 -31 -31 -23 -24 -31 vhcurveto
          endchar
        </CharString>
        <CharString name="exclamdown">
          -362 389 111 hstem
          47 111 vstem
          47 446 rmoveto
          -33 23 -24 31 31 26 24 33 30 -26 24 -31 -31 -23 -24 -30 vhcurveto
          109 -566 rmoveto
          -32 424 rlineto
          -41 hlineto
          -31 -424 rlineto
          104 hlineto
          endchar
        </CharString>
        <CharString name="f">
          -208 89 callgsubr
          -50 29 199 58 hstemhm
          120 84 hintmask 11011000
          31 -47 callgsubr
          hintmask 10111000
          -5 callgsubr
          hintmask 11011000
          -28 vlineto
          endchar
        </CharString>
        <CharString name="f_f">
          149 89 callgsubr
          178 58 hstem
          120 84 273 84 vstem
          31 -47 callgsubr
          -5 callgsubr
          -28 vlineto
          357 -47 callgsubr
          -5 callgsubr
          -28 vlineto
          endchar
        </CharString>
        <CharString name="fi">
          85 0 28 413 50 89 117 -28 58 hstemhm
          117 84 233 120 -102 84 hintmask 11011010
          536 53 rmoveto
          438 -334 39 vlineto
          90 19 49 68 14 22 -3 -8 17 vhcurveto
          13 -64 rlineto
          36 hlineto
          13 114 rlineto
          11 -20 -45 8 -32 hhcurveto
          -109 -81 -88 -149 hvcurveto
          -5 callgsubr
          -28 288 28 vlineto
          -115 25 rlineto
          388 251 -388 vlineto
          -88 -21 rlineto
          -32 261 32 vlineto
          -89 21 rlineto
          hintmask 11101100
          -42 527 rmoveto
          31 29 24 33 -50 callgsubr
          -33 -27 -27 -33 -33 27 -24 33 hvcurveto
          endchar
        </CharString>
        <CharString name="five">
          -63 -9 55 282 58 158 67 hstem
          357 90 vstem
          414 611 rmoveto
          -306 hlineto
          -24 -264 18 -19 rlineto
          167 88 -34 -113 -84 -67 -51 -94 -38 -42 5 19 -54 hvcurveto
          -15 -46 rlineto
          -18 46 57 -15 76 hhcurveto
          144 77 75 115 91 -34 114 -273 hvcurveto
          13 158 rlineto
          261 67 hlineto
          endchar
        </CharString>
        <CharString name="five.dnom">
          -8 44 188 42 116 52.5 72 callgsubr
          441 63 callgsubr
          -34 -63 -24 -30 4 16 -43 hvcurveto
          -10 -39 rlineto
          -15 35 47 -10 47 hhcurveto
          105 56 55 80 59 -24 77 -191 3 hvcurveto
          10 116 rlineto
          182 59 hlineto
          endchar
        </CharString>
        <CharString name="five.numr">
          167 42 190 41 117 45 72 callgsubr
          -3 callgsubr
          endchar
        </CharString>
        <CharString name="five.osf">
          -63 -100 50 290 58 158 67 hstem
          347 90 vstem
          102 240 rmoveto
          133 112 -24 -116 -97 -77 -53 -126 -17 -16 1 8 -50 hvcurveto
          -1 -46 rlineto
          -8 35 38 -5 43 hhcurveto
          182 79 92 112 90 -52 104 -245 hvcurveto
          13 158 rlineto
          261 67 -306 hlineto
          -24 -264 18 -19 rlineto
          endchar
        </CharString>
        <CharString name="fiveeighths">
          421 -9 39 137 42 191 39 118 45 hstemhm
          261 76 307 12 callsubr
          hintmask 1111110010000000
          421 hmoveto
          -49 callsubr
          -107 -3 callgsubr
          330 -505 -22 callsubr
          hintmask 1111101100000000
          -23 callgsubr
          hintmask 1111110010000000
          40 callsubr
          hintmask 1111101100000000
          -37 callsubr
          hintmask 1111110010000000
          -61 callgsubr
        </CharString>
        <CharString name="fl">
          74 0 33 403.5 54.5 -50 29 206 57 hstemhm
          117 84 248 84 hintmask 11011100
          506 727 rmoveto
          -17 -21 rlineto
          5 -14 -44 22 -79 hhcurveto
          -130 -105 -94 -149 hvcurveto
          hintmask 10111100
          -5 callgsubr
          -28 288 32 vlineto
          -115 21 rlineto
          hintmask 11011100
          388 vlineto
          151 -9 rlineto
          59 -150 39 vlineto
          90 38 56 83 71 35 -25 -17 20 vhcurveto
          -581 71 callsubr
          -89 20 rlineto
          674 -27 vlineto
          endchar
        </CharString>
        <CharString name="florin">
          -147 -169 47 458 38 199 43 hstemhm
          -28 475 -373 165 hintmask 11110000
          391 567 rmoveto
          17 -65 rlineto
          29 hlineto
          10 92 rlineto
          13 -34 -39 9 -38 hhcurveto
          hintmask 11101000
          -97 -57 -80 -162 -16 hvcurveto
          -89 hlineto
          -6 -38 rlineto
          90 hlineto
          -42 -344 rlineto
          -79 -9 -22 -35 -48 hhcurveto
          -26 -37 1 0 hvcurveto
          -5 -23 rlineto
          -15 27 35 -10 22 hhcurveto
          60 61 39 93 11 hvcurveto
          45 373 rlineto
          135 hlineto
          4 38 rlineto
          -133 hlineto
          132 10 37 67 61 hhcurveto
          hintmask 11110000
          14 20 -3 -3 10 hvcurveto
          endchar
        </CharString>
        <CharString name="four">
          -63 140 58 hstem
          299 78 vstem
          299 hmoveto
          78 140 63 callsubr
          -140 hlineto
          -222 198 83 callsubr
        </CharString>
        <CharString name="four.dnom">
          96 46 73 callsubr
          hmoveto
          68 96 60 46 -60 287 hlineto
          -54 5 -228 -305 11 -33 rlineto
          203 -96 20 callgsubr
        </CharString>
        <CharString name="four.numr">
          267 46 73 callsubr
          171 rmoveto
          68 96 60 46 -60 287 hlineto
          -54 6 -228 -306 11 -33 rlineto
          203 -96 20 callgsubr
        </CharString>
        <CharString name="four.osf">
          -63 57 58 hstem
          299 78 vstem
          299 -90 rmoveto
          78 147 63 callsubr
          -147 hlineto
          -222 205 83 callsubr
        </CharString>
        <CharString name="fraction">
          -257 0 611 hstem
          22 282 vstem
          81 hmoveto
          -49 callsubr
          endchar
        </CharString>
        <CharString name="g">
          -24 callsubr
          hintmask 0000000000000000
          hintmask 1111000110000000
          379 441 -101 callgsubr
        </CharString>
        <CharString name="g_tilde.loclGUA">
          -37 -29 callgsubr
          66 callgsubr
          41 73 -46 74 -74 85 194 84 -18 72 hintmask 1110110001010000
          398 101 callgsubr
          hintmask 1110101001010000
          -100 callsubr
          hintmask 1110110001010000
          -82 callsubr
          hintmask 1111010001100000
          -10 -234 rmoveto
          113 70 hlineto
          -142 -37 rlineto
          hintmask 1110110001010000
          17 -31 -31 9 -47 hhcurveto
          -123 -59 -84 -86 -56 14 -55 48 -33 hvcurveto
          hintmask 1110110010010000
          -33 -36 -29 -36 -31 vvcurveto
          -24 9 -20 22 -11 vhcurveto
          hintmask 1110110100010000
          -44 -38 -14 -41 -29 vvcurveto
          -49 21 -48 153 193 77 87 75 84 -61 15 -86 vhcurveto
          hintmask 1110110010100000
          -165 hlineto
          -20 -11 18 14 16 9 15 18 25 hvcurveto
          -1 32 -7 38 145 47 83 83 vhcurveto
          hintmask 1111010001100000
          40 -13 44 -30 27 vhcurveto
          hintmask 1110110001100000
          -136 -230 rmoveto
          -75 -24 46 73 71 20 52 76 72 26 -52 -71 -72 -21 -47 -74 hvcurveto
          hintmask 1110110100010000
          -105 -191 rmoveto
          196 hlineto
          47 23 -10 -40 -56 -52 -41 -138 -86 -23 20 48 25 11 27 22 27 hvcurveto
          endchar
        </CharString>
        <CharString name="gbreve">
          -37 -29 callgsubr
          78 54 hstemhm
          41 73 -46 74 -74 85 -14 80 callgsubr
          -26 84 -18 72 hintmask 0000000000000000
          hintmask 1110110001101000
          257 578 -92 callgsubr
          hintmask 1111010010010000
          131 -137 rmoveto
          113 70 hlineto
          -142 -37 rlineto
          hintmask 1110110010101000
          17 -31 -31 9 -47 hhcurveto
          -123 -59 -84 -86 -56 14 -55 48 -33 hvcurveto
          hintmask 1110110100101000
          -33 -36 -29 -36 -31 vvcurveto
          -24 9 -20 22 -11 vhcurveto
          hintmask 1110111000101000
          -44 -38 -14 -41 -29 vvcurveto
          -49 21 -48 153 193 77 87 75 84 -61 15 -86 vhcurveto
          hintmask 1110110100010000
          -165 hlineto
          -20 -11 18 14 16 9 15 18 25 hvcurveto
          -1 32 -7 38 145 47 83 83 vhcurveto
          hintmask 1111010010010000
          40 -13 44 -30 27 vhcurveto
          hintmask 1110110010010000
          -136 -230 rmoveto
          -75 -24 46 73 71 20 52 76 72 26 -52 -71 -72 -21 -47 -74 hvcurveto
          hintmask 1110111000101000
          -105 -191 rmoveto
          196 hlineto
          47 23 -10 -40 -56 -52 -41 -138 -86 -23 20 48 25 11 27 22 27 hvcurveto
          endchar
        </CharString>
        <CharString name="gcaron">
          -24 callsubr
          hintmask 1110100101000000
          148 -76 callsubr
          hintmask 1111000110000000
          231 -274 -101 callgsubr
        </CharString>
        <CharString name="gcircumflex">
          -24 callsubr
          hintmask 1110100101000000
          362 552 -90 callsubr
          hintmask 1111000110000000
          17 -111 -101 callgsubr
        </CharString>
        <CharString name="gcommaaccent">
          -37 -29 callgsubr
          hstemhm
          41 73 -46 74 -74 85 194 84 -18 72 hintmask 1110100101000000
          268 68 callsubr
          hintmask 1111000110000000
          120 -299 -101 callgsubr
        </CharString>
        <CharString name="gdotaccent">
          2 callsubr
          80 117 hstemhm
          32 73 -46 74 -74 85 51 120 23 84 -18 72 hintmask 1110110011010000
          315 -65 callsubr
          hintmask 1111010011100000
          64 -196 rmoveto
          113 70 hlineto
          -142 -37 rlineto
          hintmask 1110110011010000
          17 -31 -31 9 -47 hhcurveto
          -123 -59 -84 -86 -56 14 -55 48 -33 hvcurveto
          hintmask 1110110101010000
          -33 -36 -29 -36 -31 vvcurveto
          -24 9 -20 22 -11 vhcurveto
          hintmask 1110111001010000
          -44 -38 -14 -41 -29 vvcurveto
          -49 21 -48 153 193 77 87 75 84 -61 15 -86 vhcurveto
          hintmask 1110110101100000
          -165 hlineto
          -20 -11 18 14 16 9 15 18 25 hvcurveto
          -1 32 -7 38 145 47 83 83 vhcurveto
          hintmask 1111010011100000
          40 -13 44 -30 27 vhcurveto
          hintmask 1110110011100000
          -136 -230 rmoveto
          -75 -24 46 73 71 20 52 76 72 26 -52 -71 -72 -21 -47 -74 hvcurveto
          hintmask 1110111001010000
          -105 -191 rmoveto
          196 hlineto
          47 23 -10 -40 -56 -52 -41 -138 -86 -23 20 48 25 11 27 22 27 hvcurveto
          endchar
        </CharString>
        <CharString name="germandbls">
          34 -10 46 -36 28 413 29 181 49 hstemhm
          117 84 95 79 24 87 16 79 hintmask 10111101
          420 -10 rmoveto
          101 60 49 80 hvcurveto
          142 -206 59 64 73 111 16 88 vvcurveto
          hintmask 01111111
          69 -78 70 -104 -95 -92 -39 -171 vhcurveto
          -5 callgsubr
          -28 250 36 vlineto
          -77 17 rlineto
          466 vlineto
          78 12 54 86 74 26 -48 -51 vhcurveto
          -92 -103 -25 -69 vvcurveto
          hintmask 10111101
          -113 206 -35 -114 vvcurveto
          -38 -22 -30 -52 -27 -27 7 5 -13 vhcurveto
          hintmask 01111101
          -21 82 rlineto
          -32 hlineto
          -12 -114 rlineto
          hintmask 10111101
          -14 35 39 -12 50 hhcurveto
          endchar
        </CharString>
        <CharString name="grave">
          -310 558 72 callsubr
          228 558 -80 callgsubr
          endchar
        </CharString>
        <CharString name="grave.case">
          -310 650 72 callsubr
          228 650 -80 callgsubr
          endchar
        </CharString>
        <CharString name="gravecomb">
          92 callgsubr
          -27 650 -80 callgsubr
          endchar
        </CharString>
        <CharString name="greater">
          -56 119 378 hstem
          69 382 29 callgsubr
          endchar
        </CharString>
        <CharString name="greaterequal">
          -56 30 52 hstem
          63 388 29 callgsubr
          -388 -278 69 callsubr
        </CharString>
        <CharString name="guillemotleft">
          -185 71 355 hstem
          29 328 vstem
          29 47 callsubr
          293 -177 rmoveto
          35 22 -82 155 82 155 -35 23 -135 -178 135 -177 rlineto
          endchar
        </CharString>
        <CharString name="guillemotright">
          -185 71 355 hstem
          24 327 vstem
          193 248 rmoveto
          -136 178 -33 -23 81 -155 -81 -155 33 -22 136 177 rlineto
          23 178 99 callsubr
          135 177 -135 178 rlineto
          endchar
        </CharString>
        <CharString name="guilsinglleft">
          -323 71 355 hstem
          28 169 vstem
          28 47 callsubr
          endchar
        </CharString>
        <CharString name="guilsinglright">
          -323 71 355 hstem
          47 167 vstem
          80 426 99 callsubr
          134 177 -134 178 rlineto
          endchar
        </CharString>
        <CharString name="h">
          52 0 86 callgsubr
          227 84 vstem
          596 hmoveto
          -62 callsubr
          endchar
        </CharString>
        <CharString name="hbar">
          52 0 32 408 60 84 46 hstem
          112 84 227 84 vstem
          507 53 rmoveto
          338 vlineto
          82 -63 27 -71 -65 -72 -23 -17 -40 vhcurveto
          124 120 46 -120 97 -25 vlineto
          -148 -15 rlineto
          -22 vlineto
          89 -21 rlineto
          -39 -89 -46 89 -531 vlineto
          -90 -21 rlineto
          -32 257 32 vlineto
          -83 21 rlineto
          371 vlineto
          10 34 50 6 43 50 callsubr
          -83 -21 rlineto
          -32 256 32 vlineto
          -89 21 rlineto
          endchar
        </CharString>
        <CharString name="hcircumflex">
          52 0 86 callgsubr
          227 84 vstem
          267 741 -100 callgsubr
          329 -741 rmoveto
          -62 callsubr
          endchar
        </CharString>
        <CharString name="hookabovecomb">
          -565 556 48 callsubr
          -151 43 11 54 hintmask 11010000
          -43 632 rmoveto
          33 -33 16 -52 -18 -25 -2 -4 -25 vhcurveto
          6 -53 rlineto
          30 hlineto
          8 32 rlineto
          8 7 1 5 hhcurveto
          22 13 -10 -17 -18 -14 -14 -42 hvcurveto
          hintmask 11110000
          -63 callsubr
          hintmask 11010000
          49 8 13 22 21 vvcurveto
          endchar
        </CharString>
        <CharString name="hungarumlaut">
          -310 544 170 hstem
          -36 326 vstem
          -17 -18 callgsubr
          endchar
        </CharString>
        <CharString name="hungarumlaut.case">
          -310 652 148 hstem
          -28 311 vstem
          -6 -19 callsubr
          endchar
        </CharString>
        <CharString name="hyphen">
          39 callgsubr
        </CharString>
        <CharString name="i">
          -254 0 32 548 117 hstemhm
          100 120 -101 83 106 callgsubr
          220 -65 callsubr
          hintmask 10010000
          71 -605 -90 callgsubr
          endchar
        </CharString>
        <CharString name="i.loclTRK">
          -251 0 32 548 117 hstemhm
          97 120 -98 83 106 callgsubr
          217 -65 callsubr
          hintmask 10010000
          74 -605 -90 callgsubr
          endchar
        </CharString>
        <CharString name="iacute">
          18 callgsubr
          54 558 -98 callgsubr
          237 -526 -90 callgsubr
          endchar
        </CharString>
        <CharString name="iacute_j.loclNLD">
          47 76 callgsubr
          32 403 65 hstem
          119 83 228 84 vstem
          83 558 -98 callgsubr
          306 hmoveto
          214 103 rlineto
          18 vlineto
          -76 28 -154 -130 16 -19 rlineto
          -98 -526 -90 callgsubr
          50 431 -84 callgsubr
        </CharString>
        <CharString name="ibreve">
          -251 0 32 546 54 hstem
          40 34 45 83 39 33 vstem
          158 578 -92 callgsubr
          133 -546 -90 callgsubr
          endchar
        </CharString>
        <CharString name="icircumflex">
          18 callgsubr
          244 552 -90 callsubr
          47 -520 -90 callgsubr
          endchar
        </CharString>
        <CharString name="idieresis">
          -251 0 32 548 113 hstemhm
          -11 114 16 83 -19 115 hintmask 00000000
          hintmask 11101000
          103 635 -103 callgsubr
          hintmask 10010000
          -7 -603 -90 callgsubr
          endchar
        </CharString>
        <CharString name="igrave">
          18 callgsubr
          211 558 -80 callgsubr
          80 -526 -90 callgsubr
          endchar
        </CharString>
        <CharString name="ij">
          44 76 callgsubr
          32 403 65 81 116 hstemhm
          100 120 -101 83 212 116 -103 84 hintmask 00000000
          hintmask 11111010
          220 -65 callsubr
          310 hmoveto
          -26 callsubr
          hintmask 11110101
          -239 -605 -90 callgsubr
          47 431 -84 callgsubr
        </CharString>
        <CharString name="imacron">
          -251 0 32 577 52 hstemhm
          20 217 -118 83 106 callgsubr
          20 661 -53 callsubr
          hintmask 11010000
          271 -629 -90 callgsubr
          endchar
        </CharString>
        <CharString name="infinity">
          143 169 54 170 54 hstem
          47 59 496 59 vstem
          353 351 rmoveto
          40 -29 -53 56 -79 hhcurveto
          -119 -26 -84 -55 -56 26 -83 119 79 53 57 40 29 hvcurveto
          -40 30 53 -57 78 hhcurveto
          120 27 83 56 55 -27 84 -120 -78 -53 -56 -40 -30 hvcurveto
          -247 -43 rmoveto
          33 11 52 74 63 47 -56 -29 23 vhcurveto
          -28 -23 -47 -57 -63 hhcurveto
          -74 -11 51 34 hvcurveto
          496 hmoveto
          -34 -11 -51 -74 -65 -46 57 28 -23 vhcurveto
          29 24 45 56 65 hhcurveto
          74 11 -52 -33 hvcurveto
          endchar
        </CharString>
        <CharString name="integral">
          -177 -134 35 764 36 hstem
          169 77 vstem
          246 -1 rmoveto
          607 vlineto
          44 22 15 22 12 11 -4 -7 8 vhcurveto
          12 -63 rlineto
          31 hlineto
          13 83 rlineto
          18 -20 -40 9 -25 hhcurveto
          -79 -44 -44 -89 hvcurveto
          -607 vlineto
          -45 -23 -15 -22 -12 -11 4 7 -8 vhcurveto
          -12 62 rlineto
          -31 hlineto
          -12 -83 rlineto
          -17 21 39 -8 24 hhcurveto
          79 45 44 89 hvcurveto
          endchar
        </CharString>
        <CharString name="iogonek">
          -251 -236 44 192 32 548 117 hstemhm
          100 120 -118 68 -51 83 hintmask 00000000
          hintmask 11110000
          160 580 rmoveto
          31 29 24 33 -50 callgsubr
          -32 -28 -27 -33 -33 28 -24 32 hvcurveto
          hintmask 11100100
          42 -527 rmoveto
          447 -25 vlineto
          -147 -37 callgsubr
          -21 rlineto
          -32 183 vlineto
          hintmask 11101000
          -69 -36 -42 -59 -56 -17 callsubr
          51 28 58 93 24 hvcurveto
          hintmask 11100100
          32 vlineto
          -89 21 rlineto
          endchar
        </CharString>
        <CharString name="itilde">
          -251 0 32 550 54 callsubr
          119 83 hintmask 11010000
          282 101 callgsubr
          hintmask 10110000
          -100 callsubr
          hintmask 11010000
          -82 callsubr
          9 -643 -90 callgsubr
          endchar
        </CharString>
        <CharString name="j">
          -267 -167 54 694 116 hstemhm
          103 116 -103 84 106 callgsubr
          219 637 rmoveto
          -26 callsubr
          hintmask 11010000
          -192 -174 -84 callgsubr
        </CharString>
        <CharString name="jcircumflex">
          -267 -167 54 hstem
          116 84 vstem
          256 552 -90 callsubr
          -229 -89 -84 callgsubr
        </CharString>
        <CharString name="k">
          -14 -30 callsubr
          endchar
        </CharString>
        <CharString name="kcommaaccent">
          6 -30 callsubr
          -281 -221 9 callgsubr
        </CharString>
        <CharString name="kgreenlandic">
          -7 0 32 430 29 hstem
          120 84 vstem
          265 hmoveto
          32 vlineto
          -61 21 rlineto
          447 -25 vlineto
          -148 -38 rlineto
          -22 vlineto
          89 -10 rlineto
          -377 1 callsubr
          endchar
        </CharString>
        <CharString name="l">
          -268 0 33 hstem
          107 83 vstem
          280 33 -61 callsubr
          endchar
        </CharString>
        <CharString name="lacute">
          -268 0 33 hstem
          107 83 vstem
          27 728 -98 callgsubr
          253 -695 -61 callsubr
          endchar
        </CharString>
        <CharString name="lcaron">
          -252 0 33 hstem
          107 83 vstem
          280 33 -61 callsubr
          -6 480 31 callgsubr
          endchar
        </CharString>
        <CharString name="lcommaaccent">
          -268 0 33 hstem
          107 83 vstem
          280 33 -61 callsubr
          -146 -254 rmoveto
          64 179 -12 14 -72 -15 -13 15 callsubr
        </CharString>
        <CharString name="ldot">
          -268 0 33 343 115 hstem
          107 83 48 114 vstem
          280 33 -61 callsubr
          72 401 13 callsubr
        </CharString>
        <CharString name="less">
          -56 119 378 hstem
          58 383 29 callsubr
          endchar
        </CharString>
        <CharString name="lessequal">
          -56 30 52 hstem
          58 389 29 callsubr
          -348 -89 69 callsubr
        </CharString>
        <CharString name="logicalnot">
          -56 282 54 hstem
          397 50 vstem
          447 137 rmoveto
          199 -385 -54 335 -145 50 vlineto
          endchar
        </CharString>
        <CharString name="longs">
          -208 0 28 413 29 199 58 hstem
          120 85 vstem
          31 hmoveto
          288 28 hlineto
          -115 25 1 477 rlineto
          90 20 49 72 14 22 -3 -8 17 vhcurveto
          13 -64 rlineto
          36 hlineto
          13 114 rlineto
          11 -20 -45 8 -32 hhcurveto
          -112 -83 -88 -149 hvcurveto
          -5 callgsubr
          -28 vlineto
          endchar
        </CharString>
        <CharString name="lozenge">
          -56 -1 611 hstem
          57 395 vstem
          226 610 rmoveto
          -169 -306 169 -305 rlineto
          57 hlineto
          169 305 -169 306 rlineto
          -57 hlineto
          -102 -306 rmoveto
          130 228 128 -228 -128 -227 -130 227 rlineto
          endchar
        </CharString>
        <CharString name="lslash">
          -262 0 33 hstem
          110 83 vstem
          193 342 rmoveto
          108 61 -24 39 -84 -48 rlineto
          333 -12 callsubr
          1 callgsubr
          -310 vlineto
          -107 -61 22 -37 85 48 rlineto
          -243 71 callsubr
          -90 20 rlineto
          289 vlineto
          endchar
        </CharString>
        <CharString name="m">
          336 87 callsubr
          hstem
          117 84 210 83 212 83 vstem
          274 hmoveto
          28 vlineto
          -73 25 rlineto
          371 vlineto
          10 29 44 6 34 hhcurveto
          82 21 -13 -53 hvcurveto
          -321 vlineto
          -74 -25 rlineto
          -28 232 28 vlineto
          -75 25 rlineto
          338 vlineto
          13 -1 12 -3 8 vhcurveto
          10 31 46 6 37 hhcurveto
          83 19 -16 -50 hvcurveto
          -321 vlineto
          -75 -25 rlineto
          -28 249 28 vlineto
          -91 25 rlineto
          338 vlineto
          66 -37 30 -50 10 vhcurveto
          1 -11 -14 2 -14 hhcurveto
          -72 -75 -23 -17 -43 hvcurveto
          -15 19 -22 11 -27 6 rrcurveto
          2 -12 -14 2 -14 hhcurveto
          -62 -69 -23 -17 -37 hvcurveto
          40 -27 vlineto
          -146 -37 callgsubr
          -25 rlineto
          -28 246 vlineto
          endchar
        </CharString>
        <CharString name="macron">
          -310 609 105 callsubr
          661 -53 callsubr
          endchar
        </CharString>
        <CharString name="macron.case">
          -310 697 105 callsubr
          749 -53 callsubr
          endchar
        </CharString>
        <CharString name="minus">
          -56 282 54 hstem
          63 384 vstem
          63 282 rmoveto
          384 54 -384 -54 hlineto
          endchar
        </CharString>
        <CharString name="multiply">
          -56 141 338 hstem
          86 336 vstem
          86 180 rmoveto
          37 -39 131 132 132 -131 36 38 -131 130 131 131 -38 37 -130 -130 -130 131 -38 -38 131 -131 -131 -130 rlineto
          endchar
        </CharString>
        <CharString name="n">
          59 0 25 callgsubr
          203 460 -98 callsubr
          endchar
        </CharString>
        <CharString name="nacute">
          36 callsubr
          220 558 -98 callgsubr
          -20 -98 -98 callsubr
          endchar
        </CharString>
        <CharString name="nacute.loclPLK">
          59 0 25 callgsubr
          303 -26 callgsubr
          -100 -84 -98 callsubr
          endchar
        </CharString>
        <CharString name="napostrophe">
          35 0 25 callgsubr
          114 513 31 callgsubr
          89 -53 -98 callsubr
          endchar
        </CharString>
        <CharString name="ncaron">
          36 callsubr
          204 -76 callsubr
          -4 -255 -98 callsubr
          endchar
        </CharString>
        <CharString name="ncommaaccent">
          36 callsubr
          200 460 -98 callsubr
          97 -681 rmoveto
          63 179 -13 14 -70 -15 -14 -178 rlineto
          34 hlineto
          endchar
        </CharString>
        <CharString name="nine">
          -63 -12 55 191 57 283 53 hstem
          41 87 248 88 vstem
          69 62 rmoveto
          -13 -49 rlineto
          -16 42 48 -9 62 hhcurveto
          116 140 59 287 140 -40 153 -168 -185 -30 -130 -76 -102 62 -85 110 46 55 15 34 62 hvcurveto
          -173 -3 -79 -67 -110 hhcurveto
          -35 -40 7 12 -40 hvcurveto
          309 285 rmoveto
          -34 -42 -50 -22 -45 hhcurveto
          -62 -51 41 104 81 48 57 76 98 28 -78 -149 hvcurveto
          endchar
        </CharString>
        <CharString name="nine.dnom">
          -9 45 127 46 32 callgsubr
          51 104 callgsubr
          -8 44 hhcurveto
          86 102 45 200 97 85 callsubr
          -52 -73 46 -60 82 31 36 9 19 40 hvcurveto
          -110 -4 -52 -45 -72 hhcurveto
          -24 -30 5 67 callsubr
          27 68 101 callsubr
        </CharString>
        <CharString name="nine.numr">
          163 45 128 44 32 callgsubr
          222 104 callgsubr
          -7 44 hhcurveto
          86 102 45 199 97 85 callsubr
          -52 -73 46 -58 82 31 36 7 20 40 hvcurveto
          -111 -4 -52 -44 -72 hhcurveto
          -24 -30 4 67 callsubr
          28 68 54 32 39 50 63 18 -53 -102 hvcurveto
          endchar
        </CharString>
        <CharString name="nine.osf">
          -63 -100 50 191 57 283 53 hstem
          41 87 253 83 vstem
          464 255 rmoveto
          123 -30 156 -187 -171 -35 -130 -76 -102 62 -85 110 47 57 16 36 64 vhcurveto
          -175 1 -121 -68 -107 hhcurveto
          -18 -19 2 3 -23 hvcurveto
          -6 -46 rlineto
          -5 24 27 -4 31 hhcurveto
          114 180 36 319 hvcurveto
          -223 -57 rmoveto
          -62 -51 44 94 92 48 53 78 96 28 -80 -147 hvcurveto
          -34 -42 -50 -22 -45 hhcurveto
          endchar
        </CharString>
        <CharString name="notequal">
          78 callsubr
          417 rmoveto
          -100 hlineto
          50 84 -46 27 -64 -111 rlineto
          -224 -54 194 hlineto
          -66 -111 rlineto
          -128 -52 98 hlineto
          -48 -84 45 -26 64 110 rlineto
          225 52 -195 hlineto
          65 111 rlineto
          130 54 hlineto
          endchar
        </CharString>
        <CharString name="ntilde">
          75 callgsubr
          66 callgsubr
          117 83 229 83 hintmask 11101100
          455 101 callgsubr
          hintmask 11011100
          -100 callsubr
          hintmask 11101100
          -82 callsubr
          -255 -215 -98 callsubr
          endchar
        </CharString>
        <CharString name="numbersign">
          -9 169 53 111 53 hstem
          0 556 vstem
          392 222 rmoveto
          32 111 rlineto
          117 hlineto
          15 53 rlineto
          -117 hlineto
          49 177 rlineto
          -56 hlineto
          -50 -177 rlineto
          -139 hlineto
          49 177 rlineto
          -54 hlineto
          -50 -177 rlineto
          -128 hlineto
          -14 -53 rlineto
          127 hlineto
          -31 -111 rlineto
          -128 hlineto
          -14 -53 rlineto
          129 hlineto
          -49 -178 rlineto
          54 hlineto
          48 178 rlineto
          141 hlineto
          -49 -178 rlineto
          55 hlineto
          49 178 rlineto
          118 hlineto
          14 53 rlineto
          -118 hlineto
          -195 hmoveto
          32 111 rlineto
          140 hlineto
          -31 -111 rlineto
          -141 hlineto
          endchar
        </CharString>
        <CharString name="o">
          -44 callgsubr
          274 500 -103 callsubr
        </CharString>
        <CharString name="oacute">
          -44 callgsubr
          200 558 -98 callgsubr
          74 -58 -103 callsubr
        </CharString>
        <CharString name="oacute.loclPLK">
          -44 callgsubr
          265 -26 callgsubr
          9 -44 -103 callsubr
        </CharString>
        <CharString name="obreve">
          -45 callgsubr
          78 54 hstemhm
          41 92 24 80 callgsubr
          23 92 hintmask 00000000
          hintmask 11111110
          275 578 -92 callgsubr
          hintmask 11110010
          -1 -78 -103 callsubr
        </CharString>
        <CharString name="ocircumflex">
          -44 callgsubr
          381 552 -32 callsubr
        </CharString>
        <CharString name="odieresis">
          -45 callgsubr
          80 113 hstemhm
          41 92 -14 -11 callgsubr
          -14 92 hintmask 00000000
          hintmask 11101100
          233 635 -29 callsubr
          -154 -135 -103 callsubr
        </CharString>
        <CharString name="oe">
          287 -10 48 -48 53 219 40 151 47 hstemhm
          41 91 281 96 221 91 hintmask 10111110
          636 500 rmoveto
          -63 -66 -19 -71 -44 hvcurveto
          54 -36 -59 36 -94 hhcurveto
          -168 -65 -114 -143 -140 67 -113 166 92 60 34 54 36 hvcurveto
          hintmask 01111110
          -59 36 62 -29 87 hhcurveto
          69 48 16 28 49 hvcurveto
          -5 30 rlineto
          -13 -40 -64 -8 -41 hhcurveto
          -141 -13 138 66 hvcurveto
          15 310 vlineto
          2 24 0 15 7 vvcurveto
          hintmask 10111110
          132 -78 60 -107 vhcurveto
          -223 -253 rmoveto
          -117 -19 -92 -118 -117 -27 92 117 119 27 87 111 118 25 -87 -119 vhcurveto
          317 60 rmoveto
          -219 -10 rlineto
          89 3 32 65 95 hhcurveto
          58 31 -49 -72 hvcurveto
          -23 vlineto
          endchar
        </CharString>
        <CharString name="ogonek">
          -310 -236 44 hstem
          33 67 vstem
          161 hmoveto
          -34 hlineto
          -67 -53 -27 -56 -42 0 callsubr
          -34 -21 21 38 51 31 51 30 31 hvcurveto
          endchar
        </CharString>
        <CharString name="ograve">
          -44 callgsubr
          364 558 -80 callgsubr
          -90 -58 -103 callsubr
        </CharString>
        <CharString name="ohorn">
          -45 callgsubr
          hstemhm
          65 callgsubr
          -31 82 hintmask 00000000
          hintmask 11101000
          557 536 -73 callgsubr
        </CharString>
        <CharString name="ohungarumlaut">
          -44 callgsubr
          149 -18 callgsubr
          -36 -44 -103 callsubr
        </CharString>
        <CharString name="omacron">
          -45 callgsubr
          109 52 hstem
          41 92 31 217 33 92 vstem
          164 661 -53 callsubr
          110 -161 -103 callsubr
        </CharString>
        <CharString name="one">
          -63 0 33 508 78 callgsubr
          554 vlineto
          -243 -36 rlineto
          -37 158 -481 94 callgsubr
        </CharString>
        <CharString name="one.dnom">
          -213 373 29 hstem
          179 71 vstem
          66 373 rmoveto
          113 -373 13 callgsubr
          -29 vlineto
          endchar
        </CharString>
        <CharString name="one.numr">
          -213 546 28 hstem
          160 71 vstem
          47 546 rmoveto
          113 -374 13 callgsubr
          -28 vlineto
          endchar
        </CharString>
        <CharString name="one.osf">
          -63 0 33 433 78 callgsubr
          479 vlineto
          -243 -36 rlineto
          -37 158 -406 94 callgsubr
        </CharString>
        <CharString name="oneeighth">
          318 -9 39 370 39 107 28 hstemhm
          160 71 310 12 callsubr
          hintmask 11111001
          331 hmoveto
          -49 callsubr
          -284 546 rmoveto
          113 -374 13 callgsubr
          -28 vlineto
          494 -449 -47 callsubr
        </CharString>
        <CharString name="onehalf">
          305 0 49 345 45 104 30 hstem
          132 71 498 76 vstem
          291 hmoveto
          -49 callsubr
          -272 543 rmoveto
          113 -372 13 callgsubr
          -30 vlineto
          605 -149 rmoveto
          50 27 -31 -43 -52 -27 -40 -47 -47 hvcurveto
          -147 -143 10 -38 rlineto
          298 hlineto
          9 102 -34 2 -27 -55 rlineto
          -178 hlineto
          113 103 rlineto
          56 51 50 59 60 vvcurveto
          86 -65 31 -78 -52 -52 -17 -20 -34 vhcurveto
          16 -35 rlineto
          17 39 35 10 38 hhcurveto
          endchar
        </CharString>
        <CharString name="onequarter">
          305 96 46 402 30 hstem
          132 71 476 70 vstem
          301 hmoveto
          -49 callsubr
          -282 544 rmoveto
          113 -372 13 callgsubr
          -30 vlineto
          660 -544 10 callgsubr
        </CharString>
        <CharString name="ordfeminine">
          -54 callsubr
        </CharString>
        <CharString name="ordmasculine">
          -16 callsubr
        </CharString>
        <CharString name="oslash">
          -44 callgsubr
          376 482 -52 callgsubr
        </CharString>
        <CharString name="oslashacute">
          -44 callgsubr
          414 661 -48 callsubr
          -38 -179 -52 callgsubr
        </CharString>
        <CharString name="otilde">
          -45 callgsubr
          82 97 callgsubr
          420 101 callgsubr
          hintmask 11011100
          -100 callsubr
          hintmask 11101100
          82 callsubr
          -175 -103 callsubr
        </CharString>
        <CharString name="p">
          12 112 callgsubr
          106 83 254 92 vstem
          250 48 rmoveto
          -12 -37 rlineto
          -8 27 29 97 callsubr
          -57 114 -202 -75 -110 -18 -19 -74 hvcurveto
          -23 28 callgsubr
          -543 vlineto
          -89 -26 rlineto
          -28 273 29 vlineto
          -101 26 rlineto
          546 vlineto
          11 34 35 6 26 hhcurveto
          145 14 -110 -94 -100 -21 102 callgsubr
        </CharString>
        <CharString name="paragraph">
          -52 0 33 580 34 hstem
          23 238 39 83 vstem
          261 237 rmoveto
          407 vlineto
          2 -9 -12 1 -11 hhcurveto
          -132 -74 -94 -113 -114 74 -93 132 11 12 1 3 9 hvcurveto
          217 -204 rmoveto
          -95 20 rlineto
          539 vlineto
          95 21 rlineto
          34 -178 -593 vlineto
          -114 -20 rlineto
          -34 292 33 vlineto
          endchar
        </CharString>
        <CharString name="parenleft">
          -287 -181 892 hstem
          62 77 vstem
          139 264 rmoveto
          206 0 154 135 60 vhcurveto
          -11 27 rlineto
          -189 -54 -12 -105 -288 vvcurveto
          -286 12 -105 189 -54 vhcurveto
          11 27 rlineto
          -135 58 0 155 205 vvcurveto
          endchar
        </CharString>
        <CharString name="parenright">
          -287 -181 892 hstem
          139 77 vstem
          139 264 rmoveto
          -205 0 -155 -136 -58 vhcurveto
          11 -27 rlineto
          188 54 14 105 286 vvcurveto
          288 -14 105 -188 54 vhcurveto
          -11 -27 rlineto
          136 -60 0 -154 -206 vvcurveto
          endchar
        </CharString>
        <CharString name="partialdiff">
          -51 -10 51 367 45 223 53 hstem
          41 89 262 88 vstem
          57 667 rmoveto
          13 -24 rlineto
          24 48 30 9 45 hhcurveto
          148 32 -109 -139 11 hvcurveto
          2 -58 23 -57 -146 -82 -89 -135 -133 58 -106 138 109 134 66 281 276 -111 116 -140 -66 -60 -17 -45 -46 vhcurveto
          202 -626 rmoveto
          -101 -28 67 116 128 56 56 84 53 36 -15 -13 29 hvcurveto
          3 -42 1 -25 -35 vvcurveto
          -150 -45 -87 -88 vhcurveto
          endchar
        </CharString>
        <CharString name="percent">
          305 90 callsubr
          47 114 callgsubr
          vstem
          368 -39 callgsubr
          -158 -157 rmoveto
          11 callgsubr
          endchar
        </CharString>
        <CharString name="period">
          -379 -9 118 hstem
          32 120 vstem
          152 49 rmoveto
          -13 callsubr
          endchar
        </CharString>
        <CharString name="periodcentered">
          -335 194 115 hstem
          58 114 vstem
          172 252 13 callsubr
        </CharString>
        <CharString name="perthousand">
          707 90 callsubr
          49 114 callgsubr
          53 47 231 44 vstem
          370 -39 callgsubr
          375 hmoveto
          169 -71 55 -89 -90 -72 -58 -166 -167 72 -59 90 89 71 57 169 vhcurveto
          -533 -157 rmoveto
          11 callgsubr
          375 hmoveto
          11 callgsubr
          endchar
        </CharString>
        <CharString name="pi">
          26 -3 53 365 76 hstem
          138 72 163 79 72 34 vstem
          568 50 rmoveto
          -46 hlineto
          -53 -17 38 55 hvcurveto
          272 35 vlineto
          62 9 44 71 hvcurveto
          16 -34 vlineto
          -40 -18 -15 -32 vhcurveto
          -361 hlineto
          -62 -44 -52 -63 hvcurveto
          30 -7 rlineto
          37 25 10 9 58 hhcurveto
          8 -357 hlineto
          -77 -18 rlineto
          -28 vlineto
          -13 38 30 -3 29 hhcurveto
          33 19 21 54 hvcurveto
          344 163 -246 vlineto
          -145 28 -27 90 17 32 5 17 33 vhcurveto
          -5 31 rlineto
          endchar
        </CharString>
        <CharString name="plus">
          -56 281 19 callsubr
          endchar
        </CharString>
        <CharString name="plusminus">
          -56 30 52 199 19 callsubr
          -384 -304 69 callsubr
        </CharString>
        <CharString name="product">
          94 0 33 525 53 hstem
          129 83 235 83 vstem
          620 578 rmoveto
          33 -581 -78 callgsubr
          505 235 -505 108 callsubr
          262 83 callgsubr
        </CharString>
        <CharString name="q">
          -5 -167 28 129 59 404 47 hstem
          43 92 252 83 vstem
          470 -113 rmoveto
          607 -26 vlineto
          -26 -31 rlineto
          27 -50 -55 10 -46 hhcurveto
          -154 -70 -114 -143 -142 61 -111 117 82 37 21 35 50 hvcurveto
          -159 vlineto
          -89 -26 rlineto
          -28 259 28 vlineto
          -90 26 rlineto
          -83 532 rmoveto
          -331 vlineto
          -24 -30 -47 -15 -50 hhcurveto
          -77 -48 54 155 112 43 83 91 38 42 -12 -22 38 hvcurveto
          endchar
        </CharString>
        <CharString name="question">
          -9 111 475 50 hstem
          86 111 89 83 vstem
          208 627 rmoveto
          -51 -63 -17 -18 -35 hvcurveto
          10 -105 rlineto
          28 hlineto
          21 80 rlineto
          6 26 22 4 20 hhcurveto
          66 34 -28 -68 -93 -49 -51 -125 -67 hvcurveto
          10 -111 rlineto
          41 hlineto
          12 88 rlineto
          158 87 36 73 82 vvcurveto
          85 -58 53 -103 vhcurveto
          -66 -525 rmoveto
          -31 -25 -24 -31 -31 25 -25 31 31 24 25 31 31 -24 24 -31 hvcurveto
          endchar
        </CharString>
        <CharString name="questiondown">
          -136 50 475 111 hstem
          13 84 89 111 vstem
          241 389 rmoveto
          32 24 24 33 30 -24 24 -32 -30 -25 -24 -30 -33 25 -24 30 hvcurveto
          -65 -525 rmoveto
          51 63 17 18 34 hvcurveto
          -11 105 rlineto
          -27 hlineto
          -20 -80 rlineto
          -5 -26 -22 -5 -20 hhcurveto
          -66 -35 28 68 93 50 51 125 67 hvcurveto
          -10 111 rlineto
          -41 hlineto
          -12 -86 rlineto
          -158 -88 -38 -72 -84 vvcurveto
          -85 60 -53 103 vhcurveto
          endchar
        </CharString>
        <CharString name="quotedbl">
          -268 467 230 hstem
          37 223 vstem
          37 697 rmoveto
          34 -230 rlineto
          23 hlineto
          35 230 rlineto
          -92 hlineto
          132 hmoveto
          35 -230 rlineto
          22 hlineto
          34 230 rlineto
          -91 hlineto
          endchar
        </CharString>
        <CharString name="quotedblbase">
          -223 -120 228 hstem
          47 255 vstem
          69 -120 rmoveto
          83 211 -14 17 45 callgsubr
          150 hmoveto
          83 211 -15 17 -76 -18 -15 116 callgsubr
        </CharString>
        <CharString name="quotedblleft">
          -255 424 228 hstem
          19 255 vstem
          102 652 rmoveto
          44 callsubr
          150 hmoveto
          44 callsubr
          endchar
        </CharString>
        <CharString name="quotedblright">
          -255 424 228 hstem
          36 255 vstem
          58 424 rmoveto
          83 212 -14 16 45 callgsubr
          150 hmoveto
          83 212 -14 16 45 callgsubr
          endchar
        </CharString>
        <CharString name="quoteleft">
          -405 424 228 hstem
          19 105 vstem
          102 652 rmoveto
          44 callsubr
          endchar
        </CharString>
        <CharString name="quoteright">
          -405 424 228 hstem
          36 105 vstem
          58 424 rmoveto
          83 212 -14 16 45 callgsubr
          endchar
        </CharString>
        <CharString name="quotesinglbase">
          -372 -120 228 hstem
          47 105 vstem
          69 -120 rmoveto
          83 211 -14 17 45 callgsubr
          endchar
        </CharString>
        <CharString name="quotesingle">
          -397 467 230 hstem
          38 92 vstem
          38 697 rmoveto
          34 -230 rlineto
          24 hlineto
          34 230 rlineto
          -92 hlineto
          endchar
        </CharString>
        <CharString name="r">
          5 callsubr
          -14 callgsubr
          endchar
        </CharString>
        <CharString name="racute">
          5 callsubr
          147 558 -98 callgsubr
          162 -122 -86 callsubr
          endchar
        </CharString>
        <CharString name="radical">
          -55 462 29 207 29 hstem
          23 571 vstem
          510 678 rmoveto
          84 20 -1 29 rlineto
          -123 hlineto
          -198 -615 -112 379 rlineto
          -137 hlineto
          1 -29 60 -21 155 -454 41 9 230 682 rlineto
          endchar
        </CharString>
        <CharString name="rcaron">
          5 callsubr
          107 -76 callsubr
          202 -279 -86 callsubr
          endchar
        </CharString>
        <CharString name="rcommaaccent">
          5 callsubr
          -14 callgsubr
          -152 -657 rmoveto
          63 179 -12 14 -71 -15 -14 -178 rlineto
          34 hlineto
          endchar
        </CharString>
        <CharString name="registered">
          -71 209 32 63 17 123 19 123 24 53 33 hstem
          4 32 122 50 88 56 107 31 12 callgsubr
          32 hmoveto
          119 93 92 118 119 93 -92 -119 -119 -93 -92 -119 -118 -93 92 119 vhcurveto
          277 -148 rmoveto
          77 18 hlineto
          -31 8 -35 63 -20 35 -8 17 -16 5 rlinecurve
          61 13 11 45 28 vvcurveto
          34 -28 40 -75 vhcurveto
          -125 -19 hlineto
          34 -7 rlineto
          -254 vlineto
          -34 -9 rlineto
          -17 117 17 vlineto
          -33 9 rlineto
          114 6 vlineto
          30 3 -3 -137 66 hvcurveto
          -79 159 rmoveto
          -26 123 20 hlineto
          48 20 -23 -34 -37 -20 -29 -42 hvcurveto
          endchar
        </CharString>
        <CharString name="ring">
          -310 513 35 131 35 hstem
          24 54 99 54 vstem
          231 613 -24 callgsubr
          endchar
        </CharString>
        <CharString name="ring.case">
          -310 633 35 120 34 hstem
          27 50 102 49 vstem
          228 728 -69 callgsubr
          endchar
        </CharString>
        <CharString name="s">
          77 callgsubr
          -40 callsubr
          endchar
        </CharString>
        <CharString name="sacute">
          -140 11 callsubr
          125 558 -98 callgsubr
          96 -109 -96 callsubr
          endchar
        </CharString>
        <CharString name="sacute.loclPLK">
          77 callgsubr
          201 -26 callgsubr
          20 -95 -96 callsubr
          endchar
        </CharString>
        <CharString name="scaron">
          -137 -10 48 411 51 hstem
          57 70 185 75 vstem
          117 698 rmoveto
          -23 -18 100 -139 rlineto
          60 hlineto
          98 139 -21 18 -107 -90 -107 90 rlineto
          110 -249 rmoveto
          65 callsubr
          hvcurveto
          21 -73 rlineto
          30 hlineto
          16 107 rlineto
          20 -44 -46 12 -44 hhcurveto
          -116 -57 -53 -88 -67 31 -38 72 -27 hvcurveto
          62 -23 rlineto
          65 -23 25 -23 -45 vvcurveto
          -44 -40 -31 -65 -38 -28 6 6 -21 vhcurveto
          -21 82 rlineto
          -31 hlineto
          -14 -116 rlineto
          -17 44 60 -9 44 hhcurveto
          122 63 59 83 78 -31 34 -83 29 hvcurveto
          -74 26 rlineto
          -52 19 -20 16 44 vvcurveto
          45 36 26 64 vhcurveto
          endchar
        </CharString>
        <CharString name="scedilla">
          -140 41 callsubr
          36 48 411 51 hstemhm
          51 70 120 65 -5 75 hintmask 11111010
          376 142 rmoveto
          63 -22 37 -89 31 vhcurveto
          -72 26 rlineto
          -52 19 -20 16 44 vvcurveto
          45 36 26 64 65 callsubr
          vhcurveto
          21 -73 rlineto
          30 hlineto
          16 107 rlineto
          20 -44 -46 12 -44 hhcurveto
          -116 -57 -53 -88 -67 31 -38 72 -27 hvcurveto
          63 -22 rlineto
          65 -23 19 -22 -33 vvcurveto
          -62 -40 -27 -65 -38 -28 6 6 -21 vhcurveto
          -21 82 rlineto
          -31 hlineto
          -14 -116 rlineto
          hintmask 11111100
          41 -16 54 -9 42 -1 -19 -57 rcurveline
          -77 callsubr
          12 37 rlineto
          hintmask 11111010
          109 6 56 57 88 vvcurveto
          endchar
        </CharString>
        <CharString name="scircumflex">
          77 callgsubr
          317 552 -90 callsubr
          -96 -103 -96 callsubr
          endchar
        </CharString>
        <CharString name="scommaaccent">
          -140 11 callsubr
          -40 callsubr
          -24 -670 9 callgsubr
        </CharString>
        <CharString name="section">
          -237 -9 46 541 49 hstem
          23 66 168 69 vstem
          249 569 rmoveto
          19 -76 rlineto
          31 hlineto
          17 106 rlineto
          0 -65 28 -78 -77 -73 -33 -80 -84 54 -14 241 -199 vhcurveto
          3 10 1 6 18 77 -233 102 83 vvcurveto
          61 45 4 40 28 34 -5 -4 13 vhcurveto
          -196 -439 rmoveto
          -27 hlineto
          -12 -118 rlineto
          2 74 -21 79 hhcurveto
          91 66 51 76 62 -55 19 -248 205 hvcurveto
          -4 -7 0 -13 -11 -83 238 -99 -78 vvcurveto
          -49 -43 -27 -56 -38 -32 9 4 -14 vhcurveto
          -21 80 rlineto
          endchar
        </CharString>
        <CharString name="semicolon">
          -379 342 118 hstem
          32 120 vstem
          152 400 rmoveto
          -13 callsubr
          -98 -520 rmoveto
          84 211 -15 17 -76 -18 -16 116 callgsubr
        </CharString>
        <CharString name="seven">
          -63 551 60 hstem
          46 58 vstem
          50 473 rmoveto
          33 hlineto
          21 78 rlineto
          286 hlineto
          -254 -551 90 -9 233 569 -15 51 rlineto
          -402 hlineto
          8 -138 rlineto
          endchar
        </CharString>
        <CharString name="seven.dnom">
          382 46 hstem
          44 53 vstem
          47 329 24 callgsubr
        </CharString>
        <CharString name="seven.numr">
          557 45 hstem
          44 53 vstem
          47 23 callsubr
          endchar
        </CharString>
        <CharString name="seven.osf">
          -63 463 60 hstem
          46 58 vstem
          50 385 rmoveto
          33 hlineto
          21 78 rlineto
          286 hlineto
          -125 -184 -84 -183 -45 -184 90 -9 rcurveline
          38 190 67 189 128 190 -15 51 rcurveline
          -402 hlineto
          8 -138 rlineto
          endchar
        </CharString>
        <CharString name="seveneighths">
          374 -9 39 370 39 118 45 hstemhm
          44 53 500 12 callsubr
          hintmask 11111001
          361 hmoveto
          -49 callsubr
          -314 23 callsubr
          550 -405 -47 callsubr
        </CharString>
        <CharString name="six">
          -43 callgsubr
        </CharString>
        <CharString name="six.dnom">
          -9 41 188 43 136 40 callgsubr
          227 62 callsubr
          6 -21 -22 3 8 callgsubr
          -52 -54 37 callgsubr
        </CharString>
        <CharString name="six.numr">
          162 40 189 43 135 40 callgsubr
          397 115 callgsubr
          -1 -4 21 hvcurveto
          5 37 112 callsubr
          -59 -209 -98 29 -81 122 143 23 97 53 62 -33 60 -96 -45 -37 -13 -24 -30 hvcurveto
          -4 -66 rmoveto
          32 21 41 28 39 hhcurveto
          56 13 -43 -51 -55 37 callgsubr
        </CharString>
        <CharString name="six.osf">
          -43 callgsubr
        </CharString>
        <CharString name="slash">
          -223 -138 834 hstem
          8 328 vstem
          336 696 rmoveto
          -58 hlineto
          -270 -834 rlineto
          56 hlineto
          272 834 rlineto
          endchar
        </CharString>
        <CharString name="space">
          -362 endchar
        </CharString>
        <CharString name="sterling">
          -63 0 55 208 44 259 53 hstem
          144 78 vstem
          222 151 rmoveto
          112 187 vlineto
          9 44 rlineto
          -196 36 hlineto
          129 8 94 91 22 18 -3 -5 21 vhcurveto
          22 -94 rlineto
          40 hlineto
          10 127 rlineto
          17 -42 -50 11 -55 hhcurveto
          -140 -23 -103 -209 hvcurveto
          -94 hlineto
          -8 -44 rlineto
          102 -110 hlineto
          -69 -102 -43 0 vhcurveto
          14 -41 rlineto
          400 hlineto
          28 90 -16 14 -50 -44 -278 -10 rlineto
          41 20 41 47 34 vvcurveto
          endchar
        </CharString>
        <CharString name="summation">
          -43 -78 78 569 52 hstemhm
          424 38 -33 38 106 callgsubr
          424 474 rmoveto
          38 147 -452 -45 hlineto
          233 -307 -233 -317 rlineto
          -30 vlineto
          hintmask 11010000
          457 169 -38 hlineto
          -25 -91 rlineto
          -294 hlineto
          213 288 rlineto
          10 vlineto
          -200 271 rlineto
          hintmask 11100000
          277 hlineto
          24 -95 rlineto
          endchar
        </CharString>
        <CharString name="t">
          -211 436 55 hstem
          96 82 vstem
          329 11 -54 callgsubr
          endchar
        </CharString>
        <CharString name="tbar">
          -211 266 46 124 55 hstem
          96 82 vstem
          343 432 rmoveto
          59 -165 110 -37 vlineto
          -37 -100 -81 -25 rlineto
          -36 73 -128 -64 -46 64 -193 vlineto
          -41 17 -41 61 27 87 9 11 41 vhcurveto
          27 vlineto
          -151 20 rlineto
          208 145 46 -145 128 vlineto
          165 -8 rlineto
          endchar
        </CharString>
        <CharString name="tcaron">
          -211 436 55 hstem
          96 82 vstem
          257 726 rmoveto
          29 -213 rlineto
          23 hlineto
          31 195 -55 18 rlineto
          -28 hlineto
          72 -715 -54 callgsubr
          endchar
        </CharString>
        <CharString name="thorn">
          14 112 callgsubr
          109 82 253 93 vstem
          252 48 rmoveto
          -12 -37 rlineto
          -8 31 25 97 callsubr
          -61 114 -186 -33 -33 -2 -4 -33 hvcurveto
          233 -25 vlineto
          -147 1 callgsubr
          -769 vlineto
          -89 -26 rlineto
          -28 272 29 vlineto
          -101 26 rlineto
          546 vlineto
          10 20 36 7 34 hhcurveto
          153 10 -110 -94 -100 -20 102 callgsubr
        </CharString>
        <CharString name="three">
          -63 -9 55 256 44 223 58 hstemhm
          321 88 -60 91 hintmask 00000000
          hintmask 11110000
          247 627 rmoveto
          -70 -70 -25 -28 -46 hvcurveto
          35 callgsubr
          87 98 -11 -119 -88 -67 -38 -94 -38 -41 5 20 -55 hvcurveto
          -11 -49 rlineto
          -19 46 63 -12 67 hhcurveto
          144 77 59 122 91 -63 61 -96 12 hvcurveto
          88 callsubr
          vhcurveto
          endchar
        </CharString>
        <CharString name="three.dnom">
          -7 43 172 33 152 46 24 callsubr
          439 -18 callsubr
          -23 -34 -47 85 callgsubr
          hintmask 11101000
          -15 callgsubr
          hintmask 11110000
          48 callgsubr
        </CharString>
        <CharString name="three.numr">
          163 44 171 34 151 46 24 callsubr
          609 -18 callsubr
          -22 -35 -47 -30 -38 -82 -9 hvcurveto
          3 -34 rlineto
          hintmask 11101000
          16 callgsubr
          hintmask 11110000
          47 20 39 36 56 vvcurveto
          63 -55 30 -65 vhcurveto
          endchar
        </CharString>
        <CharString name="three.osf">
          -63 -100 50 259 44 223 58 hstemhm
          321 88 -68 89 hintmask 11101000
          430 91 rmoveto
          87 -58 55 -91 10 vhcurveto
          88 callsubr
          -70 -70 -25 -28 -46 vhcurveto
          35 callgsubr
          105 72 -19 -100 -91 -80 -49 -115 -20 -21 0 6 -46 hvcurveto
          -1 -46 rlineto
          -8 41 25 -2 50 hhcurveto
          160 96 84 107 hvcurveto
          endchar
        </CharString>
        <CharString name="threeeighths">
          406 -9 39 133 44 171 34 -12 39 124 46 hstemhm
          242 75 -56 77 291 12 callsubr
          hintmask 1101101100100000
          411 hmoveto
          -49 callsubr
          hintmask 1110110100100000
          -214 609 -18 callsubr
          -22 -35 -47 -30 -38 -82 -9 hvcurveto
          3 -34 rlineto
          hintmask 1110101100100000
          16 callgsubr
          hintmask 1110110100100000
          47 20 39 36 56 vvcurveto
          63 -55 30 -65 vhcurveto
          hintmask 1101101100100000
          432 -512 -22 callsubr
          hintmask 1101101011000000
          -23 callgsubr
          hintmask 1101101100100000
          40 callsubr
          hintmask 1101101011000000
          -37 callsubr
          hintmask 1101101100100000
          -61 callgsubr
        </CharString>
        <CharString name="threequarters">
          345 96 46 22 43 172 34 151 46 hstemhm
          233 75 -56 77 390 70 hintmask 10110110
          380 hmoveto
          -49 callsubr
          hintmask 10111010
          -192 610 38 callgsubr
          -9 hvcurveto
          3 -34 rlineto
          hintmask 11110110
          60 68 -8 -79 -58 -43 -27 -61 -26 -29 4 15 -44 hvcurveto
          -10 -39 rlineto
          -13 36 46 -10 47 hhcurveto
          104 57 42 86 60 -41 42 -66 11 hvcurveto
          hintmask 10111010
          47 20 39 36 55 vvcurveto
          64 -55 30 -65 vhcurveto
          hintmask 10110110
          531 -610 10 callgsubr
        </CharString>
        <CharString name="tilde">
          -310 582 54 callsubr
          -18 290 hintmask 10100000
          272 101 callgsubr
          hintmask 01100000
          -100 callsubr
          hintmask 10100000
          -82 callsubr
          endchar
        </CharString>
        <CharString name="tilde.case">
          -310 669 54 callsubr
          -18 290 hintmask 10100000
          272 762 -64 callsubr
          hintmask 01100000
          -100 callsubr
          hintmask 10100000
          -82 callsubr
          endchar
        </CharString>
        <CharString name="tildecomb">
          -565 669 54 callsubr
          -273 290 hintmask 10100000
          17 762 -64 callsubr
          hintmask 01100000
          -100 callsubr
          hintmask 10100000
          -82 callsubr
          endchar
        </CharString>
        <CharString name="trademark">
          282 278 24 302 40 hstem
          122 64 187 38.5 273.5 60.5 vstem
          -1 644 rmoveto
          3 -92 rlineto
          29 hlineto
          13 52 rlineto
          78 -291 hlineto
          -64 -11 rlineto
          -25 192 25 vlineto
          -64 11 rlineto
          291 78 vlineto
          12 -52 rlineto
          30 hlineto
          4 92 rlineto
          -311 hlineto
          461 -366 rmoveto
          24 vlineto
          -53 11 9 266 110 -308 47 7 106 299 12 -264 -54 -11 rlineto
          -24 171 24 vlineto
          -56 11 -13 294 53 12 rlineto
          25 -126 vlineto
          -105 -293 -101 293 rlineto
          -129 -25 hlineto
          48 -11 -12 -295 -48 -11 rlineto
          -24 141 vlineto
          endchar
        </CharString>
        <CharString name="two">
          -63 0 63 506 58 hstem
          346 87 vstem
          229 569 rmoveto
          74 43 -46 -65 -81 -35 -53 -73 -72 hvcurveto
          -206 -202 15 -50 111 callgsubr
          -39 -81 rlineto
          -271 hlineto
          169 154 rlineto
          80 73 64 79 91 vvcurveto
          122 -86 45 -106 -70 -69 -25 -26 -46 vhcurveto
          18 -43 rlineto
          24 50 48 12 57 hhcurveto
          endchar
        </CharString>
        <CharString name="two.dnom">
          0 49 345 45 104 callsubr
          394 -14 callsubr
        </CharString>
        <CharString name="two.numr">
          172 49 346 44 hstem
          256 75 vstem
          -16 callgsubr
          endchar
        </CharString>
        <CharString name="two.osf">
          -63 0 63 413 58 hstem
          346 87 vstem
          430 144 rmoveto
          -39 -81 rlineto
          -262 hlineto
          157 110 rlineto
          96 67 51 44 88 vvcurveto
          114 -87 48 -102 -74 -68 -25 -26 -46 vhcurveto
          18 -43 rlineto
          26 53 55 10 40 hhcurveto
          86 38 -46 -67 -63 -34 -33 -61 -46 hvcurveto
          -221 -166 17 -55 111 callgsubr
          endchar
        </CharString>
        <CharString name="u">
          81 callgsubr
          579 12 -107 callsubr
          endchar
        </CharString>
        <CharString name="uacute">
          17 callsubr
          202 558 -98 callgsubr
          376 -546 -107 callsubr
          endchar
        </CharString>
        <CharString name="ubreve">
          32 -20 callsubr
          78 54 hstemhm
          103 84 -5 80 callgsubr
          -12 84 hintmask 00000000
          hintmask 10101100
          300 578 -92 callgsubr
          hintmask 11110010
          279 -566 -107 callsubr
          endchar
        </CharString>
        <CharString name="ucircumflex">
          17 callsubr
          392 552 -90 callsubr
          186 -540 -107 callsubr
          endchar
        </CharString>
        <CharString name="udieresis">
          37 -20 callsubr
          80 113 hstemhm
          102 84 -51 -11 callgsubr
          -41 84 hintmask 00000000
          hintmask 11101100
          249 635 -28 callgsubr
          134 -623 -107 callsubr
          endchar
        </CharString>
        <CharString name="ugrave">
          17 callsubr
          375 558 -80 callgsubr
          203 -546 -107 callsubr
          endchar
        </CharString>
        <CharString name="uhorn">
          16 callsubr
          646 564 -74 callgsubr
        </CharString>
        <CharString name="uhungarumlaut">
          17 callsubr
          172 -18 callgsubr
          245 -532 -107 callsubr
          endchar
        </CharString>
        <CharString name="umacron">
          37 -20 callsubr
          109 52 hstemhm
          102 84 -4 217 4 84 hintmask 00000000
          hintmask 10101000
          182 661 -53 callsubr
          hintmask 11110100
          396 -649 -107 callsubr
          endchar
        </CharString>
        <CharString name="underscore">
          -125 -59 40 hstem
          0 440 vstem
          440 -59 rmoveto
          40 -440 -40 440 vlineto
          endchar
        </CharString>
        <CharString name="uni00A0">
          -362 endchar
        </CharString>
        <CharString name="uni00AD">
          39 callgsubr
        </CharString>
        <CharString name="uni00B2">
          279 50 345 44 104 callsubr
          674 rmoveto
          49 27 -30 -44 -53 -27 -40 -48 -46 hvcurveto
          -147 -143 10 -39 rlineto
          298 hlineto
          9 102 -33 4 -28 -56 rlineto
          -178 hlineto
          114 104 rlineto
          55 51 50 57 60 vvcurveto
          87 -64 30 -78 -52 -51 -17 -20 -36 vhcurveto
          17 -35 rlineto
          18 109 callgsubr
          endchar
        </CharString>
        <CharString name="uni00B3">
          269 42 171 34 153 45 24 callsubr
          714 rmoveto
          -50 -51 -18 -21 -35 hvcurveto
          16 -34 rlineto
          18 37 34 10 24 hhcurveto
          47 23 -24 -35 -46 -30 -39 -82 -9 hvcurveto
          3 -34 rlineto
          hintmask 11101000
          60 68 -7 -79 -59 -43 -26 -61 -26 -29 3 17 -44 hvcurveto
          -10 -39 rlineto
          -15 36 46 -8 47 hhcurveto
          104 57 41 86 60 -41 41 -66 12 hvcurveto
          hintmask 11110000
          47 21 39 34 56 vvcurveto
          63 -55 31 -65 vhcurveto
          endchar
        </CharString>
        <CharString name="uni00B5">
          -40 callgsubr
        </CharString>
        <CharString name="uni00B9">
          650 30 hstem
          182 71 vstem
          69 650 rmoveto
          113 -372 13 callgsubr
          -30 vlineto
          endchar
        </CharString>
        <CharString name="uni0162">
          -52 41 callsubr
          46 33 526 52 hstemhm
          14 60 142 83 -5 65 81 61 hintmask 11111100
          10 611 rmoveto
          8 -140 rlineto
          36 hlineto
          20 88 rlineto
          142 -506 hlineto
          -107 -20 rlineto
          -33 vlineto
          hintmask 11111010
          128 hlineto
          -23 -67 -77 callsubr
          15 46 rlineto
          138 33 hlineto
          hintmask 11111101
          -106 20 rlineto
          506 141 vlineto
          19 -88 rlineto
          39 hlineto
          6 140 rlineto
          hintmask 11111100
          -494 hlineto
          endchar
        </CharString>
        <CharString name="uni0163">
          -211 41 callsubr
          482 55 hstem
          96 82 45 65 vstem
          343 432 rmoveto
          59 -165 110 -37 vlineto
          -37 -100 -81 -25 rlineto
          -36 73 -367 vlineto
          -38 15 -39 52 -5 vhcurveto
          -20 -58 -77 callsubr
          12 38 37 2 65 8 34 9 rlinecurve
          27 vlineto
          -151 20 rlineto
          382 vlineto
          165 -8 rlineto
          endchar
        </CharString>
        <CharString name="uni018F">
          81 -9 48 241 49 251 48 hstem
          41 91 382 91 vstem
          318 -9 rmoveto
          212 75 96 callgsubr
          174 -76 145 -218 -81 -74 -20 -36 -67 hvcurveto
          8 -115 rlineto
          37 hlineto
          25 88 rlineto
          26 54 53 9 41 hhcurveto
          151 51 -122 -129 5 hvcurveto
          -473 -21 hlineto
          -213 96 -104 181 vhcurveto
          1 48 rmoveto
          -119 -59 72 169 -9 hvcurveto
          382 hlineto
          -116 -7 -32 -125 -156 hhcurveto
          endchar
        </CharString>
        <CharString name="uni019D">
          127 -167 54 691 33 hstem
          61 callgsubr
          vstem
          444 611 rmoveto
          -50 callsubr
          -579 vlineto
          -39 -16 -54 -53 vhcurveto
          -46 hlineto
          -5 -31 rlineto
          -17 33 31 -6 20 hhcurveto
          52 42 42 132 hvcurveto
          481 vlineto
          349 -498 62 10 rlineto
          559 6 callsubr
          vlineto
          endchar
        </CharString>
        <CharString name="uni01C4">
          60 callsubr
          764 800 -86 callgsubr
          -464 -189 -58 callsubr
        </CharString>
        <CharString name="uni01C5">
          52 callgsubr
          762 -76 callsubr
          -462 -104 -57 callsubr
        </CharString>
        <CharString name="uni01C6">
          468 -10 58 -48 51 387 53 -38 47 hstemhm
          41 92 253 83 hintmask 00000000
          hintmask 10011100
          -77 callgsubr
          307 669 rmoveto
          -22 -18 100 -139 rlineto
          60 hlineto
          98 139 -21 18 -107 -90 -108 90 rlineto
          hintmask 01101100
          190 -277 -91 callsubr
          hintmask 10011100
          -628 -390 -1 callsubr
        </CharString>
        <CharString name="uni01C7">
          205 -149 55 94 6 callgsubr
          120 83 vstem
          -21 callsubr
          67 -149 -72 callgsubr
        </CharString>
        <CharString name="uni01C8">
          211 76 callgsubr
          56 522 33 -30 116 hstemhm
          128 83 217 38 115 116 -103 84 hintmask 00000000
          hintmask 11011110
          697 637 rmoveto
          -26 callsubr
          -231 -637 rmoveto
          147 -38 vlineto
          -25 -91 rlineto
          -192 hlineto
          hintmask 11101001
          502 vlineto
          -60 callgsubr
          vlineto
          hintmask 11011110
          428 hlineto
          hintmask 11101001
          39 463 -84 callgsubr
        </CharString>
        <CharString name="uni01C9">
          30 76 callgsubr
          33 548 116 hstemhm
          107 83 210 116 -103 84 hintmask 11110100
          280 33 -61 callsubr
          hintmask 11111000
          236 604 rmoveto
          -26 callsubr
          hintmask 11110100
          -192 -174 -84 callgsubr
        </CharString>
        <CharString name="uni01CA">
          419 -149 55 94 -10 callsubr
          hstem
          61 callgsubr
          215 83 vstem
          444 -9 callgsubr
          303 -760 -72 callgsubr
        </CharString>
        <CharString name="uni01CB">
          425 76 callgsubr
          -10 callsubr
          -30 116 hstemhm
          61 callgsubr
          210 116 -103 84 hintmask 00000000
          hintmask 11011110
          911 637 rmoveto
          -26 callsubr
          hintmask 11101101
          -467 -26 -94 callsubr
          275 -148 -84 callgsubr
        </CharString>
        <CharString name="uni01CC">
          357 76 callgsubr
          28 407 65 -60 60 81 116 hstemhm
          120 83 229 83 212 116 -103 84 hintmask 0000000000000000
          hintmask 1101111100000000
          843 637 rmoveto
          -26 callsubr
          -640 -177 -98 callsubr
          hintmask 1110111010000000
          448 3 -84 callgsubr
        </CharString>
        <CharString name="uni01CD">
          -39 callsubr
          183 800 -86 callgsubr
          -52 -748 42 callsubr
          hintmask 11101000
          -102 callsubr
          hintmask 11010000
          -89 callgsubr
          endchar
        </CharString>
        <CharString name="uni01CE">
          -7 callgsubr
          142 -76 callsubr
          89 -269 rmoveto
          -107 callgsubr
          endchar
        </CharString>
        <CharString name="uni01CF">
          -226 19 callgsubr
          128 83 vstem
          56 800 -86 callgsubr
          -18 -189 -91 callgsubr
          endchar
        </CharString>
        <CharString name="uni01D0">
          18 callgsubr
          50 -76 callsubr
          241 -683 -90 callgsubr
          endchar
        </CharString>
        <CharString name="uni01D1">
          -44 callsubr
          215 800 -86 callgsubr
          115 -174 rmoveto
          -106 callsubr
          endchar
        </CharString>
        <CharString name="uni01D2">
          -44 callgsubr
          167 -76 callsubr
          107 -215 -103 callsubr
        </CharString>
        <CharString name="uni01D3">
          -30 callgsubr
          vstem
          212 800 -86 callgsubr
          344 -564 -104 callgsubr
          endchar
        </CharString>
        <CharString name="uni01D4">
          81 callgsubr
          192 -76 callsubr
          387 -703 -107 callsubr
          endchar
        </CharString>
        <CharString name="uni01D5">
          -36 callgsubr
          56 113 86 52 hstemhm
          100 83 -12 114 -66 217 -71 115 19 57 hintmask 1101101010000000
          219 918 -53 callsubr
          hintmask 1111010110000000
          66 -196 -103 callgsubr
          hintmask 1101101010000000
          76 -486 -104 callgsubr
          endchar
        </CharString>
        <CharString name="uni01D6">
          32 -20 callsubr
          47 113 86 52 hstemhm
          103 84 -43 114 -66 217 -71 115 -49 84 hintmask 0000000000000000
          hintmask 1111001000000000
          192 798 -53 callsubr
          hintmask 1111010100000000
          66 -196 -103 callgsubr
          hintmask 1111100010000000
          126 -590 -107 callsubr
          endchar
        </CharString>
        <CharString name="uni01D7">
          7 callgsubr
          282 819 -98 callgsubr
          hintmask 11101110
          3 -97 -29 callsubr
          76 -486 -104 callgsubr
          endchar
        </CharString>
        <CharString name="uni01D8">
          7 callsubr
          255 699 -98 callgsubr
          hintmask 11101100
          3 -97 -28 callgsubr
          126 -590 -107 callsubr
          endchar
        </CharString>
        <CharString name="uni01D9">
          7 callgsubr
          214 969 -86 callgsubr
          hintmask 11101110
          71 -247 -29 callsubr
          76 -486 -104 callgsubr
          endchar
        </CharString>
        <CharString name="uni01DA">
          7 callsubr
          187 849 -86 callgsubr
          hintmask 11101100
          71 -247 -28 callgsubr
          126 -590 -107 callsubr
          endchar
        </CharString>
        <CharString name="uni01DB">
          7 callgsubr
          379 819 -80 callgsubr
          hintmask 11101110
          -94 -97 -29 callsubr
          76 -486 -104 callgsubr
          endchar
        </CharString>
        <CharString name="uni01DC">
          7 callsubr
          352 699 -80 callgsubr
          hintmask 11101100
          -94 -97 -28 callgsubr
          126 -590 -107 callsubr
          endchar
        </CharString>
        <CharString name="uni01EA">
          93 -195 44 142 48 539 48 hstem
          41 90 248 67 81 90 vstem
          501 -151 rmoveto
          -34 -21 21 38 52 24 52 40 32 hvcurveto
          75 57 32 97 110 vvcurveto
          174 -79 144 -208 -208 -81 -144 -174 -174 83 -143 206 39 35 5 10 30 vhcurveto
          -39 -42 -16 -41 -33 0 callsubr
          -370 459 rmoveto
          -82 callgsubr
          -63 callgsubr
          -166 -36 158 111 vhcurveto
          endchar
        </CharString>
        <CharString name="uni01EB">
          -18 -199 44 145 -10 callgsubr
          hstem
          41 92 164 67 50 92 vstem
          419 -155 rmoveto
          -34 -21 21 38 50 33 56 31 29 hvcurveto
          55 47 23 74 83 vvcurveto
          143 -63 114 -169 -167 -66 -114 -143 -139 67 -114 166 28 26 3 6 22 vhcurveto
          -37 -41 -16 -40 -32 0 callsubr
          -286 401 rmoveto
          -80 callsubr
          -51 callsubr
          -114 -30 89 119 vhcurveto
          endchar
        </CharString>
        <CharString name="uni01F1">
          60 callsubr
          300 611 -58 callsubr
        </CharString>
        <CharString name="uni01F2">
          52 callgsubr
          300 611 -57 callsubr
        </CharString>
        <CharString name="uni01F3">
          468 -10 58 -48 51 387 53 -38 47 hstemhm
          41 92 253 83 hintmask 00000000
          hintmask 10011100
          -77 callgsubr
          hintmask 01101100
          497 392 -91 callsubr
          hintmask 10011100
          -628 -390 -1 callsubr
        </CharString>
        <CharString name="uni01F4">
          26 callsubr
          254 650 -98 callgsubr
          194 -83 -99 callsubr
          endchar
        </CharString>
        <CharString name="uni01F5">
          -24 callsubr
          hintmask 1110100101000000
          181 558 -98 callgsubr
          hintmask 1111000110000000
          198 -117 -101 callgsubr
        </CharString>
        <CharString name="uni0200">
          -39 callsubr
          218 -70 callgsubr
          -249 -600 42 callsubr
          hintmask 11101000
          -102 callsubr
          hintmask 11010000
          -89 callgsubr
          endchar
        </CharString>
        <CharString name="uni0201">
          -7 callgsubr
          192 -71 callsubr
          -122 -98 rmoveto
          -107 callgsubr
          endchar
        </CharString>
        <CharString name="uni0202">
          -34 callsubr
          534 54 -2 callsubr
          -23 33 156 217 -206 34 hintmask 11101010
          296 786 -81 callgsubr
          -165 -734 42 callsubr
          hintmask 11110100
          -102 callsubr
          hintmask 11101010
          -89 callgsubr
          endchar
        </CharString>
        <CharString name="uni0203">
          -33 callgsubr
          150 54 hstemhm
          40 87 5 33 153 83 -69 34 hintmask 00000000
          hintmask 11101010
          248 704 -81 callgsubr
          hintmask 11110100
          -17 -258 rmoveto
          -107 callgsubr
          endchar
        </CharString>
        <CharString name="uni0204">
          -46 callgsubr
          193 -70 callgsubr
          28 -263 rmoveto
          -53 callgsubr
          hintmask 11111100
          -92 callsubr
          vlineto
          hintmask 11111010
          -89 callsubr
          endchar
        </CharString>
        <CharString name="uni0205">
          -51 callgsubr
          21 callsubr
          179 -71 callsubr
          -77 -555 -106 callgsubr
          endchar
        </CharString>
        <CharString name="uni0206">
          -52 callsubr
          121 54 54 callgsubr
          -62 110 callsubr
          -6 -4 callgsubr
          hintmask 0000000000000000
          hintmask 1111011001000000
          271 786 -81 callgsubr
          hintmask 1111100101000000
          112 -397 rmoveto
          -53 callgsubr
          hintmask 1111100110000000
          -92 callsubr
          vlineto
          hintmask 1111100101000000
          -89 callsubr
          endchar
        </CharString>
        <CharString name="uni0207">
          -51 callgsubr
          150 54 hstemhm
          38 92 -11 110 callsubr
          -3 90 hintmask 00000000
          hintmask 11110110
          235 704 -81 callgsubr
          hintmask 11111001
          28 -715 -106 callgsubr
          endchar
        </CharString>
        <CharString name="uni0208">
          -226 19 callgsubr
          128 83 vstem
          91 -70 callgsubr
          -215 -41 -91 callgsubr
          endchar
        </CharString>
        <CharString name="uni0209">
          18 callgsubr
          100 -71 callsubr
          30 -512 -90 callgsubr
          endchar
        </CharString>
        <CharString name="uni020A">
          -226 -36 callsubr
          121 54 hstem
          53 33 42 83 42 34 vstem
          169 786 -81 callgsubr
          -131 -175 -91 callgsubr
          endchar
        </CharString>
        <CharString name="uni020B">
          -251 0 32 618 54 hstem
          40 33 46 83 38 34 vstem
          156 704 -81 callgsubr
          135 -672 -90 callgsubr
          endchar
        </CharString>
        <CharString name="uni020C">
          -44 callsubr
          250 -70 callgsubr
          -82 -26 rmoveto
          -106 callsubr
          endchar
        </CharString>
        <CharString name="uni020D">
          -44 callgsubr
          217 -71 callsubr
          -104 -44 -103 callsubr
        </CharString>
        <CharString name="uni020E">
          -42 callsubr
          106 54 hstem
          41 90 81 110 callsubr
          81 90 vstem
          328 786 -81 callgsubr
          2 -160 rmoveto
          -106 callsubr
          endchar
        </CharString>
        <CharString name="uni020F">
          -45 callgsubr
          150 54 hstemhm
          41 92 24 110 callsubr
          23 92 hintmask 00000000
          hintmask 11111110
          273 704 -81 callgsubr
          hintmask 11110010
          1 -204 -103 callsubr
        </CharString>
        <CharString name="uni0210">
          -13 callgsubr
          200 -70 callgsubr
          79 -652 rmoveto
          -93 callsubr
          endchar
        </CharString>
        <CharString name="uni0211">
          5 callsubr
          143 -71 callsubr
          5 -108 -86 callsubr
          endchar
        </CharString>
        <CharString name="uni0212">
          -7 0 33 246 40 250 42 121 54 hstemhm
          133 83 -54 110 callsubr
          10 91 hintmask 00000000
          hintmask 11110111
          278 786 -81 callgsubr
          163 -786 rmoveto
          146 33 hlineto
          -78 21 -97 187 10 30 -70 21 rlinecurve
          hintmask 11111001
          115 27 30 77 61 vvcurveto
          80 -61 74 -153 vhcurveto
          -243 -33 hlineto
          93 -31 callsubr
          -93 -20 rlineto
          -33 269 33 vlineto
          -93 20 rlineto
          226 38 vlineto
          hintmask 11110111
          68 -14 -2 -277 133 hvcurveto
          hintmask 11111001
          -164 319 rmoveto
          -61 240 hlineto
          6 21 23 4 19 hhcurveto
          86 41 -47 -71 -78 -43 -54 -86 hvcurveto
          endchar
        </CharString>
        <CharString name="uni0213">
          -166 0 28 329 145 148 54 hstemhm
          83 33 1 83 83 34 hintmask 10101100
          199 704 rmoveto
          hintmask 10110100
          -92 -24 -55 -59 hvcurveto
          33 -2 rlineto
          32 15 30 70 68 14 -30 -32 vhcurveto
          34 2 rlineto
          hintmask 10101100
          59 -25 55 -93 vhcurveto
          hintmask 11101100
          110 -268 -86 callsubr
          endchar
        </CharString>
        <CharString name="uni0214">
          -30 callgsubr
          vstem
          247 -70 callgsubr
          147 -416 -104 callgsubr
          endchar
        </CharString>
        <CharString name="uni0215">
          81 callgsubr
          242 -71 callsubr
          176 -532 -107 callsubr
          endchar
        </CharString>
        <CharString name="uni0216">
          -36 callgsubr
          121 54 hstemhm
          100 83 26 110 callsubr
          56 57 hintmask 11110110
          325 786 rmoveto
          hintmask 11111110
          -92 -24 -55 -59 hvcurveto
          33 -2 rlineto
          32 15 30 70 68 14 -30 -32 vhcurveto
          34 2 rlineto
          hintmask 11110110
          59 -25 55 -93 vhcurveto
          231 -550 -104 callgsubr
          endchar
        </CharString>
        <CharString name="uni0217">
          32 -20 callsubr
          150 54 hstemhm
          103 84 -5 110 callsubr
          -12 84 hintmask 00000000
          hintmask 10101100
          298 704 -81 callgsubr
          hintmask 11110010
          281 -692 -107 callsubr
          endchar
        </CharString>
        <CharString name="uni021A">
          27 callgsubr
          10 611 -56 callgsubr
          231 -832 9 callgsubr
        </CharString>
        <CharString name="uni021B">
          -211 436 55 hstem
          96 82 vstem
          329 11 -54 callgsubr
          -149 -232 27 callsubr
        </CharString>
        <CharString name="uni0232">
          94 callsubr
          86 52 hstemhm
          175 217 -145 82 34 206 hintmask 00000000
          hintmask 11110000
          175 749 -53 callsubr
          hintmask 11101100
          188 -171 rmoveto
          -83 callsubr
          -33 vlineto
          endchar
        </CharString>
        <CharString name="uni0232.loclGUA">
          4 callgsubr
          86 52 hstem
          91 82 50 217 37 77 vstem
          223 749 -53 callsubr
          -30 -832 -96 callgsubr
        </CharString>
        <CharString name="uni0233">
          -76 42 callgsubr
          118 52 hstemhm
          2 205 -71 217 -53 194 hintmask 00000000
          hintmask 11101000
          136 661 -53 callsubr
          hintmask 11110100
          71 -170 -79 callsubr
        </CharString>
        <CharString name="uni0233.loclGUA">
          3 callsubr
          109 52 hstemhm
          99 84 -7 217 9 83 hintmask 00000000
          hintmask 11010110
          176 661 -53 callsubr
          hintmask 11111010
          230 -570 -99 callgsubr
        </CharString>
        <CharString name="uni0237">
          -267 -167 54 hstem
          116 84 vstem
          27 463 -84 callgsubr
        </CharString>
        <CharString name="uni0259">
          -94 -9 49 149 40 220 53 hstem
          31 90 220 92 vstem
          208 502 rmoveto
          -68 -45 -12 -32 -57 hvcurveto
          6 -31 rlineto
          14 50 57 8 43 hhcurveto
          93 54 -71 -117 hvcurveto
          -32 -308 vlineto
          -1 -19 -1 -15 -16 vvcurveto
          -129 60 -59 128 139 75 90 167 167 -76 87 -149 vhcurveto
          -87 -341 rmoveto
          23 vlineto
          218 10 rlineto
          -111 -5 -35 -43 -86 hhcurveto
          -64 -28 39 82 hvcurveto
          endchar
        </CharString>
        <CharString name="uni0272">
          59 76 callgsubr
          88 callgsubr
          hstem
          120 84 228 83 vstem
          515 53 rmoveto
          338 vlineto
          82 -62 27 -71 -66 -74 -23 -17 -39 vhcurveto
          40 -27 vlineto
          -145 -37 rlineto
          -23 28 callgsubr
          -450 vlineto
          -39 -16 -54 -53 vhcurveto
          -46 hlineto
          -5 -31 rlineto
          -17 33 32 -6 16 hhcurveto
          75 48 54 170 hvcurveto
          367 vlineto
          10 36 50 6 42 50 callsubr
          -82 -25 rlineto
          -28 255 28 vlineto
          -90 25 rlineto
          endchar
        </CharString>
        <CharString name="uni02B0">
          -96 105 callgsubr
          81 71 161 72 vstem
          385 321 rmoveto
          80 callsubr
          200 -22 vlineto
          -113 -29 74 callsubr
          -446 8 callsubr
          endchar
        </CharString>
        <CharString name="uni02BC">
          -310 513 213 hstem
          86 83 vstem
          114 513 31 callgsubr
          endchar
        </CharString>
        <CharString name="uni02C9">
          -310 579 105 callsubr
          631 -53 callsubr
          endchar
        </CharString>
        <CharString name="uni02E1">
          -331 278 26 hstem
          81 71 vstem
          218 304 rmoveto
          -66 17 rlineto
          502 -22 vlineto
          -113 -29 74 callsubr
          -446 vlineto
          -64 -17 rlineto
          -26 201 26 vlineto
          endchar
        </CharString>
        <CharString name="uni02E2">
          -216 270 39 302 41 hstem
          57 57 132 62 vstem
          186 611 rmoveto
          16 22 -4 -7 14 hvcurveto
          14 -54 rlineto
          28 hlineto
          11 83 rlineto
          14 -33 -35 9 -35 hhcurveto
          -89 -42 -41 -65 -53 23 -28 51 -19 hvcurveto
          53 -20 rlineto
          45 -17 17 -15 -31 vvcurveto
          -33 -29 -21 -47 -28 -20 4 6 -14 vhcurveto
          -17 61 rlineto
          -27 hlineto
          -10 -90 rlineto
          -13 34 45 -7 34 hhcurveto
          94 47 47 62 59 -24 25 -60 21 hvcurveto
          -60 22 rlineto
          -34 12 -16 12 30 vvcurveto
          32 27 19 45 vhcurveto
          endchar
        </CharString>
        <CharString name="uni0302">
          91 callgsubr
          -15 651 -100 callgsubr
          endchar
        </CharString>
</ttFont>
